<svg xmlns="http://www.w3.org/2000/svg" xmlns:xlink="http://www.w3.org/1999/xlink" viewBox="-0.002 124.688 456.217 94.92" width="452.22" height="90.92"><defs><path d="M44.57 147.5c.75-2 1.48-3.8 2.17-5.24 4.18.48 8.46.99 12.83 1.54 5.1.61 10.23.9 15.37.87H76c.23 0 .45-.09.61-.25.31-.31.73-.78 1.29-1.46.56-.68 1.11-1.32 1.71-2 .6-.68 1.19-1.39 1.77-2 .58-.61 1.05-1.2 1.41-1.63.24-.28.26-.69.07-1a.87.87 0 00-.94-.37c-.59.14-1.23.33-1.93.55-.83.24-1.67.43-2.52.56-1 .17-2.3.32-3.73.42-1.43.1-3.22.16-5.26.16-4 0-8-.11-11.88-.32-3.88-.21-8-.33-11.87-.33-6.54-.09-13.06.49-19.48 1.74-4.74.9-9.28 2.66-13.4 5.18-3.3 2.06-6 4.95-7.85 8.37-1.76 3.5-2.78 7.33-3 11.25-.02.29.11.56.33.74.23.18.53.22.8.13.65-.21 5.81-1.93 6.45-2.15.23-.07.41-.23.51-.45.1-.22.1-.46.01-.68-.27-.68-.52-1.37-.73-2-.19-.63-.28-1.29-.28-1.95-.04-2.5.65-4.95 2-7.06a15.76 15.76 0 015.61-5.09 30.5 30.5 0 018.78-3.13c3.75-.73 7.56-1.09 11.38-1.06 1.44 0 2.87.09 4.3.26 1.08.14 2.17.33 3.25.57-.37 1-.9 2.3-1.57 4-.94 2.38-2 5.21-3.13 8.41s-2.36 6.79-3.61 10.61c-1.25 3.82-2.42 7.72-3.45 11.54-1.03 3.82-1.91 7.62-2.6 11.24-.63 3.22-.96 6.5-1 9.78 0 3.09.41 6.17 1.21 9.15.1.37.44.63.83.63h.15l4.3-.75a.867.867 0 00.6-1.26c-.87-1.56-1.51-3.25-1.9-5-.31-1.61-.46-3.25-.46-4.89-.01-2.8.15-5.6.47-8.38.32-2.63.7-5 1.12-7 .35-1.76.79-3.51 1.32-5.23.33-1 .6-1.88.81-2.47h5.84c2-.02 4.01.08 6 .32 1.7.25 3.38.66 5 1.25.31.1.66.02.89-.22l3.66-3.76c.23-.25.3-.61.17-.93a.877.877 0 00-.79-.52H37.75c1.08-3.4 1.68-5.28 1.8-5.66.77-2.54 1.6-5.1 2.45-7.7.85-2.55 1.72-5 2.57-7.33z" id="a"/><path d="M37.92 152.67c1.34-3.77 2.62-7.22 3.76-10.14.1-.26.06-.56-.1-.79a.826.826 0 00-.7-.38H35c-.35 0-.67.22-.8.55-1 2.54-2.17 5.77-3.5 9.59-1.33 3.82-2.74 8-4.2 12.38-1.46 4.38-3 9.05-4.46 13.88s-2.88 9.54-4.1 14.11c-1.22 4.57-2.25 9-3.07 13.06-.75 3.55-1.28 7.14-1.57 10.75-.02.29.1.57.33.74.15.12.33.18.52.18.09.01.18.01.27 0l8.06-2.69c.4-.13.64-.53.58-.94-.07-.48-.12-.92-.15-1.3-.02-.35-.02-.7 0-1.05.05-3.05.35-6.1.9-9.1.6-3.53 1.42-7.36 2.46-11.38 1.04-4.02 2.21-8.25 3.53-12.59 1.32-4.34 2.6-8.72 3.99-12.88 1.39-4.19 2.79-8.23 4.13-12z" id="b"/><path d="M94.91 125.69h.06l.02.01h.04l.02.01h.02l.02.01h.02l.02.01.02.01h.02l.02.01.02.01.02.01.02.01.02.01.01.01.02.01.02.01.02.01.01.01.02.01.02.01.02.02.01.01.02.01.01.02.02.01.01.02.02.01.01.02.02.01.01.02.01.02.02.01.01.02.01.02.01.02.01.02.01.01.01.02.01.02.01.02.01.02.01.02.01.02v.02l.01.02.01.02v.02l.01.02v.02l.01.02v.04l.01.02V126.64l-.01.02v.05l-.01.02v.02l-.01.02v.02l-.01.02-18.06 57.39-.03.08-.02.08-.03.08-.03.09-.02.08-.03.08-.03.09-.02.08-.03.09-.03.09-.03.09-.03.08-.02.09-.03.09-.03.09-.03.1-.03.09-.03.09-.03.1-.02.09-.03.1-.03.09-.03.1-.03.1-.03.09-.03.1-.03.1-.03.1-.03.1-.03.11-.04.1-.03.1-.03.11-.03.1-.03.11-.03.11-.03.1-.04.11-.03.11-.06.22-.03.11-.04.11-.03.11-.03.11-.03.11-.04.11-.03.1-.06.22-.03.11-.04.11-.03.1-.03.11-.03.11-.03.11-.03.1-.04.11-.03.11-.03.11-.03.1-.03.11-.03.11-.03.11-.03.1-.03.11-.04.11-.03.11-.03.11-.03.1-.03.11-.03.11-.03.11-.03.11-.03.11-.02.11-.03.11-.03.11-.03.11-.03.11-.03.11-.03.11-.02.11-.03.11-.03.11-.03.11-.03.1-.02.11-.03.11-.03.1-.02.11-.03.1-.03.11-.02.1-.03.1-.03.1-.02.11-.03.1-.02.1-.03.1-.02.1-.03.1-.02.1-.03.09-.02.1-.02.1-.03.1-.02.09-.03.1-.02.09-.02.1-.02.09-.03.09-.02.1-.02.09-.02.09-.03.09-.02.09-.02.09-.02.09-.02.06-.01.07-.02.06-.02.07-.01.06-.02.06-.01.07-.02.06-.01.07-.01.06-.02.07-.01.06-.01.06-.02.07-.01.06-.01.07-.01.06-.01.07-.01.06-.01.07-.01.06-.01.07-.01.06-.01.07-.01.07-.01.06-.01.07v.06l-.01.07-.01.06-.01.07v.06l-.01.07v.07l-.01.06v.07l-.01.06v.07l-.01.06v.22l.01.14v.13l.01.12.02.12.01.11.02.11.02.1.02.09.03.09.03.08.02.07.03.07.04.07.03.06.04.06.03.05.04.05.04.04.04.04.04.04.04.03.04.03.04.02.05.02.04.02.04.02.05.02.04.01.04.01.05.01h.04l.04.01h.04l.04.01h.19l.11-.01.11-.01.11-.01.11-.01.1-.02.11-.02.11-.01.11-.02.11-.02.1-.02.11-.03.11-.02.1-.03.11-.03.1-.03.11-.03.1-.03.1-.03.11-.03.1-.04.1-.04.1-.04.11-.03.1-.05.1-.04.1-.04.1-.05.1-.04.09-.05.1-.05.1-.05.09-.05.1-.05.09-.06.1-.05.09-.06.1-.06.09-.06.09-.06.09-.06.14-.09.13-.08.14-.09.14-.09.13-.08.14-.09.13-.09.14-.09.13-.09.13-.09.13-.1.14-.09.13-.09.13-.1.13-.09.13-.09.13-.1.13-.1.13-.09.13-.1.13-.1.12-.1.13-.1.13-.1.12-.1.13-.1.12-.1.13-.11.12-.1.12-.11.13-.1.12-.11.12-.1.12-.11.12-.1.12-.11.12-.11.12-.11.12-.11.12-.11.13-.12.14-.13.13-.12.13-.12.13-.13.14-.13.13-.12.13-.13.14-.13.13-.13.13-.12.14-.13.13-.13.13-.14.14-.13.13-.13.13-.13.14-.14.13-.13.13-.13.14-.14.13-.13.14-.14.13-.14.13-.13.14-.14.13-.14.13-.14.14-.14.13-.14.13-.14.14-.14.13-.14.13-.15.14-.14.13-.14.13-.15.13-.14.14-.14.13-.15.07-.08.07-.07.06-.07.07-.08.07-.07.07-.08.07-.07.06-.08.07-.08.07-.07.07-.07.06-.08.07-.07.07-.08.06-.07.07-.08.07-.07.07-.08.06-.07.07-.08.07-.07.06-.08.07-.08.06-.07.07-.07.07-.08.06-.07.07-.08.06-.07.07-.08.07-.07.06-.08.07-.08.06-.07.07-.07.06-.08.07-.07.06-.08.07-.08.06-.07v-.19l.07-.22.07-.21.07-.22.08-.21.07-.21.07-.22.08-.21.08-.22.08-.21.07-.21.08-.21.08-.21.09-.22.08-.21.08-.21.09-.21.08-.21.09-.21.09-.2.09-.21.09-.21.09-.21.09-.21.09-.2.09-.21.1-.2.09-.21.1-.21.1-.2.1-.2.09-.21.1-.2.11-.2.1-.21.1-.2.1-.2.11-.2.11-.2.1-.2.11-.2.12-.21.11-.21.12-.22.12-.21.12-.21.12-.21.12-.2.13-.21.12-.21.13-.21.12-.2.13-.21.13-.2.13-.21.13-.2.13-.2.13-.21.13-.2.14-.2.13-.2.14-.2.13-.2.14-.2.14-.2.14-.19.14-.2.14-.2.15-.19.14-.2.14-.19.15-.19.15-.2.14-.19.15-.19.15-.19.15-.19.15-.19.15-.19.16-.18.15-.19.15-.19.16-.18.16-.18.15-.19.16-.18.16-.18.16-.18.16-.18.16-.18.16-.18.17-.18.16-.18.16-.17.17-.18.17-.17.16-.17.17-.18.17-.17.17-.17.17-.17.17-.17.18-.17.17-.17.17-.16.18-.17.17-.16.18-.17.18-.16.18-.16.18-.16.18-.16.18-.16.18-.16.18-.16.18-.16.19-.15.18-.16.19-.15.18-.16.19-.15.18-.14.18-.15.18-.14.18-.14.18-.14.19-.14.18-.13.19-.14.19-.13.18-.14.19-.13.19-.13.19-.13.19-.13.19-.12.2-.13.19-.12.19-.12.2-.12.2-.12.19-.12.2-.12.2-.11.2-.12.2-.11.2-.11.2-.11.2-.11.21-.11.2-.1.2-.11.21-.1.21-.1.2-.1.21-.1.21-.1.21-.09.21-.1.21-.09.21-.09.2-.09.2-.08.2-.08.21-.08.2-.08.2-.08.21-.07.2-.07.21-.07.21-.07.2-.06.21-.07.21-.06.21-.06.21-.05.21-.06.21-.05.21-.05.21-.05.21-.05.22-.04.21-.04.21-.04.22-.04.21-.03.22-.04.21-.03.22-.03.21-.02.22-.03.21-.02.22-.02.22-.02.21-.01.22-.02.22-.01.22-.01h.21l.22-.01h.49l.27.01.26.01.26.01.26.02.25.02.25.03.25.03.24.04.24.03.24.05.24.04.23.05.23.06.23.06.22.06.22.07.22.07.21.07.21.08.21.09.2.08.2.1.2.09.19.1.19.1.19.11.19.11.18.12.18.12.17.12.17.13.17.13.17.13.16.14.16.15.15.14.16.16.14.15.15.16.15.18.14.17.14.19.13.18.13.18.13.19.12.19.12.19.12.2.11.19.11.2.11.2.1.2.09.2.1.21.09.2.08.21.09.21.08.21.07.21.07.22.07.21.06.22.06.21.05.22.05.22.05.22.04.22.04.22.04.23.03.22.02.23.02.22.02.23.02.22v.23l.01.23v.45l-.01.23v.29l-.01.28-.01.29-.01.28-.02.29-.02.28-.02.29-.02.28-.03.28-.03.29-.03.28-.04.28-.04.28-.04.29-.05.28-.05.28-.05.28-.05.28-.06.28-.06.27-.06.28-.07.28-.06.27-.08.28-.07.27-.08.28-.08.27-.08.27-.09.27-.09.28-.09.27-.09.26-.1.27-.1.27-.1.27-.11.26-.11.26-.11.27-.11.26-.12.26-.12.26-.12.27-.12.26-.12.26-.12.26-.13.26-.12.26-.13.26-.13.26-.13.26-.13.26-.13.25-.14.26-.13.25-.14.26-.13.25-.14.25-.14.26-.15.25-.14.25-.14.25-.15.25-.14.25-.15.24-.15.25-.15.25-.15.24-.16.25-.15.24-.16.24-.15.25-.16.24-.16.24-.16.24-.16.24-.17.23-.16.24-.17.24-.16.23-.17.24-.15.21-.16.21-.15.21-.16.21-.15.21-.16.21-.16.21-.16.21-.16.2-.16.21-.16.2-.16.21-.16.2-.17.21-.16.2-.17.2-.17.2-.16.2-.17.2-.17.2-.17.2-.17.2-.17.2-.17.19-.17.2-.18.19-.17.2-.18.19-.17.19-.18.2-.18.19-.18.19-.18.19-.17.19-.19.19-.18.19-.18.18-.18.19-.19.18-.18.19-.12.12-.12.11-.11.12-.12.11-.11.11-.12.11-.11.11-.11.11-.12.11-.11.1-.11.11-.11.1-.11.11-.11.1-.1.1-.11.1-.11.09-.1.1-.11.1-.1.09-.1.1-.1.09-.11.09-.1.09-.1.09-.09.09-.1.08-.1.09-.1.08-.09.09-.1.08-.09.08-.1.08-.09.08-.09.07-.09.08-.09.07-.09.08-.09.07-.09.07.26.06.04.01.05.01.04.01.05.01h.04l.05.01.05.01.04.01.05.01h.04l.05.01.04.01h.05l.04.01.05.01h.04l.05.01h.04l.05.01h.05l.04.01h.05l.04.01h.09l.05.01h.09l.05.01h.18l.04.01H118.76l.18-.01h.17l.18-.01.17-.01.17-.01.18-.02.17-.01.17-.02.18-.02.17-.02.17-.02.17-.02.17-.03.18-.03.17-.03.17-.03.17-.03.17-.03.17-.04.17-.04.16-.04.17-.04.17-.04.17-.05.17-.04.16-.05.17-.05.16-.06.17-.05.16-.05.17-.06.16-.06.16-.06.17-.06.16-.07.16-.06.16-.07.16-.07.16-.07.18-.08.17-.08.18-.08.18-.09.17-.08.18-.08.17-.09.18-.09.17-.09.17-.09.17-.09.18-.09.17-.09.17-.09.17-.1.17-.09.16-.1.17-.1.17-.1.17-.1.16-.1.17-.1.16-.1.17-.11.16-.1.17-.11.16-.1.16-.11.16-.11.16-.11.16-.11.16-.11.16-.11.16-.12.15-.11.16-.12.16-.11.15-.12.16-.12.15-.12.16-.13.16-.12.16-.13.16-.12.16-.13.16-.13.16-.13.16-.13.16-.13.16-.13.15-.13.16-.13.16-.13.15-.14.16-.13.15-.13.16-.14.15-.13.15-.14.15-.13.16-.14.15-.14.15-.14.15-.13.15-.14.15-.14.15-.14.15-.14.15-.14.14-.14.15-.15.15-.14.14-.14.15-.15.14-.14.15-.15.14-.14.14-.15.15-.14.14-.15.06-.06.06-.07.06-.06.06-.06.06-.06.06-.07.06-.06.06-.06.06-.07.06-.06.06-.06.05-.07.06-.06.06-.06.06-.06.06-.07.06-.06.06-.06.06-.07.06-.06.05-.06.06-.06.06-.07.06-.06.06-.06.05-.07.06-.06.06-.06.06-.06.06-.07.05-.06.06-.06.06-.06.06-.07.05-.06.06-.06.06-.06.06-.07.05-.06.06-.06.03-.16.02-.16.03-.16.03-.16.03-.16.03-.16.03-.16.03-.15.03-.16.03-.16.04-.16.03-.16.04-.16.03-.15.04-.16.04-.16.04-.15.04-.16.04-.16.04-.15.04-.16.04-.16.05-.15.04-.16.05-.15.04-.16.05-.15.05-.16.05-.15.05-.16.05-.15.05-.15.05-.16.06-.15.05-.15.05-.15.06-.16.06-.15.05-.15.06-.15.09-.25.1-.24.09-.24.1-.25.1-.24.1-.25.1-.24.1-.24.1-.24.1-.24.11-.24.1-.24.11-.24.11-.24.11-.24.11-.24.11-.24.11-.24.11-.23.12-.24.11-.23.12-.24.12-.23.11-.24.12-.23.12-.23.13-.24.12-.23.12-.23.13-.23.12-.23.13-.23.13-.23.13-.23.13-.23.13-.23.13-.22.13-.23.14-.22.13-.23.12-.2.13-.2.12-.2.12-.2.12-.19.12-.2.13-.19.12-.19.12-.19.11-.19.12-.19.12-.18.12-.18.12-.19.11-.18.12-.17.12-.18.11-.18.12-.17.11-.17.12-.17.11-.17.11-.17.11-.17.12-.16.11-.16.11-.16.11-.16.11-.16.11-.15.11-.16.1-.15.11-.15.11-.15.11-.15.1-.14.11-.15.1-.14.11-.14.1-.14.13-.18.12-.17.12-.16.11-.16.11-.15.1-.14.1-.14.09-.14.08-.13.08-.12.08-.12.07-.11.06-.11.07-.1.05-.1.06-.09.05-.09.04-.09.04-.08.04-.07.04-.07.03-.07.03-.06.02-.06.03-.05.02-.05.02-.05.01-.04.02-.04.01-.04.01-.03.01-.04v-.02l.01-.03v-.02l.01-.02v-.16l-.01-.03v-.04l-.01-.02-.01-.02v-.02l-.01-.02-.01-.02v-.03l-.01-.02-.01-.01-.01-.02-.01-.02-.01-.02-.02-.02-.01-.02-.01-.02-.02-.01-.01-.02-.01-.02-.02-.01-.01-.02-.02-.01-.02-.02-.01-.01-.02-.01-.02-.02-.02-.01-.02-.01-.02-.01-.02-.01-.02-.01-.02-.01-.02-.01-.02-.01-.04-.02-.03-.02-.04-.02-.04-.01-.03-.02-.04-.02-.04-.02-.04-.01-.04-.02-.03-.01-.04-.02-.04-.01-.04-.01-.04-.02-.04-.01-.04-.01-.04-.01-.04-.01-.04-.01-.04-.01-.04-.01-.04-.01-.04-.01-.04-.01-.04-.01h-.04l-.04-.01-.04-.01h-.04l-.04-.01h-.04l-.04-.01h-.08l-.04-.01h-.53l-.06.01h-.11l-.05.01h-.05l-.06.01-.05.01h-.05l-.06.01-.05.01-.05.01-.06.01-.05.01-.05.01-.05.01-.06.01-.05.02-.05.01-.05.02-.05.01-.06.02-.05.01-.05.02-.05.02-.05.01-.05.02-.05.02-.05.02-.05.02-.05.02-.05.02-.05.02-.05.03-.05.02-.02.01-.03.01-.02.01-.02.01-.03.01h-.02l-.02.01-.03.01h-.02l-.03.01h-.05l-.02.01H148.5l-.02-.01h-.05l-.02-.01h-.03l-.02-.01-.02-.01h-.03l-.02-.01-.02-.01-.03-.01-.02-.01-.02-.01-.02-.01-.02-.01-.03-.02-.02-.01-.02-.01-.02-.02-.02-.01-.02-.02-.02-.01-.02-.02-.02-.02-.01-.02-.02-.01-.02-.02-.01-.02-.02-.02-.01-.02-.02-.02-.01-.02-.01-.02-.01-.03-.02-.02-.01-.02-.01-.02-.01-.02-.01-.03v-.02l-.01-.02-.01-.03v-.02l-.01-.02-.01-.03v-.05l-.01-.02v-.17l.01-.03v-.05l.01-.02v-.03l.01-.02.75-2.69.01-.03.01-.02.01-.03.01-.02.01-.03.01-.02.01-.03.02-.02.01-.03.02-.02.01-.02.02-.02.01-.02.02-.02.02-.02.02-.02.02-.02.02-.02.02-.02.02-.01.02-.02.02-.01.02-.02.03-.01.02-.02.02-.01.03-.01.02-.01.03-.01.02-.01.03-.01.02-.01h.03l.03-.01.02-.01h.06l.02-.01h.06l16.77-.54h.13l.02.01h.05l.03.01h.02l.03.01.02.01.03.01.02.01h.02l.03.02.02.01.02.01.02.01.02.01.02.02.03.01.02.01.02.02.01.02.02.01.02.02.02.02.02.02.01.01.02.02.02.02.01.02.02.02.01.03.01.02.02.02.01.02.01.03.01.02.01.02.01.03.01.02.01.03v.02l.01.03.01.02v.05l.01.03v.22l-.01.02v.03l-.01.02v.03l-.01.02-.01.03-.01.02v.02l-.01.03-.01.02-.01.02-.02.02-.01.03-.01.02-.01.02-.02.02-.01.02-.02.02-.02.02-.01.02-.02.02-.07.08-.08.08-.08.09-.08.09-.08.09-.09.09-.08.1-.09.09-.09.11-.09.1-.1.1-.09.11-.1.11-.1.12-.1.11-.11.12-.1.12-.11.12-.11.13-.11.13-.12.13-.11.14-.12.13-.12.14-.12.14-.13.15-.12.15-.13.15-.13.15-.14.15-.13.16-.14.16-.14.17-.14.16-.14.17-.15.17-.14.18-.15.18-.16.18-.15.18-.16.2-.17.2-.16.2-.16.2-.16.2-.16.2-.16.2-.16.2-.16.2-.16.21-.16.2-.15.2-.16.21-.15.2-.16.21-.15.2-.16.21-.15.2-.15.21-.16.21-.15.21-.15.2-.15.21-.15.21-.15.21-.14.21-.15.21-.15.21-.14.22-.15.21-.14.21-.15.21-.14.22-.15.21-.14.21-.14.22-.14.21-.14.22-.14.21-.14.22-.15.24-.15.24-.15.24-.15.24-.15.24-.15.24-.15.24-.14.24-.14.25-.15.24-.14.25-.14.24-.14.25-.14.24-.14.25-.13.25-.14.25-.13.24-.13.25-.14.25-.13.25-.13.26-.13.25-.12.25-.13.25-.13.26-.12.25-.12.25-.12.26-.12.25-.12.26-.12.26-.12.25-.12.26-.11.26-.12.26-.11.26-.11.26-.11.26-.11.26-.1.24-.11.24-.09.25-.1.24-.09.25-.1.25-.08.24-.09.25-.09.25-.08.25-.08.25-.07.25-.08.25-.07.25-.07.26-.06.25-.07.25-.06.26-.06.25-.05.26-.06.26-.05.25-.05.26-.04.26-.05.26-.04.26-.04.26-.03.26-.03.26-.04.26-.02.26-.03.26-.02.26-.02.26-.02.27-.02.26-.01.26-.01.26-.01.27v1.05l.01.16v.16l.01.15.01.16.01.16.01.16.02.15.01.16.02.16.02.15.02.16.02.16.03.15.02.16.03.15.03.16.03.15.03.16.04.15.03.15.04.16.03.15.04.15.05.15.04.16.04.15.05.15.05.15.04.15.05.15.06.15.05.15.06.14.05.15.06.15.04.1.04.11.04.1.05.09.05.1.05.09.06.09.06.09.06.09.06.09.07.08.07.08.07.08.07.07.08.08.08.07.08.06.08.07.08.06.09.06.09.06.09.05.09.06.09.04.1.05.09.04.1.04.1.04.1.03.1.03.1.03.11.02.1.02.11.02.11.01.1.02h.65l.11-.01h.11l.1-.01.11-.01.11-.01.1-.01.11-.02.1-.01.11-.02.1-.02.1-.02.11-.03.1-.02.1-.03.1-.03.1-.03.11-.03.1-.04.1-.03.09-.04.1-.04.1-.04.1-.04.09-.05.1-.04.09-.05.1-.05.09-.05.09-.05.09-.06.09-.05.09-.06.09-.06.09-.06.09-.06.08-.07.09-.06.08-.07.1-.08.09-.07.09-.08.1-.08.09-.07.09-.08.09-.08.1-.08.09-.08.09-.09.09-.08.08-.08.09-.08.09-.09.09-.08.08-.09.09-.08.08-.09.09-.09.08-.09.08-.09.09-.08.08-.09.08-.09.08-.1.08-.09.08-.09.08-.09.07-.1.08-.09.08-.09.07-.1.08-.09.07-.1.07-.1.08-.1.07-.09.07-.1.07-.1.07-.1.07-.1.07-.1.07-.1.06-.1.07-.1.07-.1.06-.1.07-.1.06-.1.07-.1.06-.1.07-.1.06-.1.06-.11.07-.1.06-.1.06-.1.06-.11.06-.1.06-.11.06-.1.06-.1.06-.11.06-.1.05-.11.06-.1.06-.11.05-.11.06-.1.05-.11.06-.11.05-.1.06-.11.05-.11.05-.11.06-.1.05-.11.05-.11.05-.11.05-.11.05-.1.04-.1.05-.1.04-.1.05-.1.04-.1.05-.09.04-.1.04-.1.04-.09.04-.09.04-.1.04-.09.04-.09.04-.09.03-.09.04-.09.04-.08.03-.09.04-.08.03-.09.03-.08.04-.08.03-.09.03-.08.03-.08.03-.07.03-.08.03-.08.03-.07.02-.08.03-.07.03-.07.02-.07.03-.07.02-.07.02-.07.03-.06.02-.07.02-.06.06-.2.06-.21.05-.2.06-.2.06-.2.06-.2.05-.19.06-.2.05-.2.06-.2.06-.19.05-.2.06-.19.05-.2.06-.19.05-.19.05-.2.06-.19.05-.19.05-.19.06-.19.05-.19.05-.19.05-.19.06-.18.05-.19.05-.19.05-.18.05-.19.05-.19.05-.18.05-.19.05-.18.05-.18.05-.19.05-.18.05-.18.05-.19.05-.18.05-.18.05-.18.05-.18.05-.18.05-.18.05-.18.05-.17.05-.18.05-.17.05-.18.05-.17.05-.17.05-.17.05-.17.05-.17.06-.17.05-.17.05-.16.05-.17.05-.16.06-.17.05-.16.05-.16.05-.17.06-.16.05-.16.05-.16.05-.16.06-.15.05-.16.05-.16.06-.15.05-.16.05-.15.05-.16.06-.15.05-.16.05-.15.05-.15.06-.15.05-.15.05-.15.06-.15.05-.15.06-.15.05-.15.06-.15.06-.15.05-.15.06-.16.06-.15.06-.15.06-.15.07-.16.06-.15.06-.15.06-.16.07-.15.06-.16.07-.15.07-.16.06-.16.07-.15.07-.16.07-.16.07-.16.07-.16.07-.16.08-.16.07-.16.07-.17.08-.16.07-.17.08-.16.08-.17.07-.17.08-.17.08-.17.08-.17.08-.17.08-.17.08-.17.08-.18.09-.18.09-.17.08-.18.09-.18.09-.19.09-.18.1-.19.09-.18.1-.19.09-.19.1-.19.1-.19.1-.2.11-.19.1-.2.1-.19.11-.2.11-.2.11-.2.11-.2.11-.21.11-.2.12-.21.11-.21.12-.21.12-.21.12-.21.12-.21.12-.21.13-.22.12-.21.13-.22.12-.22.13-.22.13-.22.13-.22.14-.23.13-.22.01-.02.01-.02.01-.01.02-.02.01-.02.01-.01.01-.02.02-.01.01-.02.01-.01.02-.02.01-.01.02-.02.01-.01.02-.01.02-.02.01-.01.02-.01.02-.01.01-.01.02-.01.02-.01.02-.01.01-.01.02-.01.02-.01.02-.01.02-.01h.02l.02-.01.02-.01h.02l.02-.01h.02l.02-.01h.04l.02-.01h.04l6.34-.54H182.52l.02.01h.03l.02.01h.03l.02.01.02.01.03.01.02.01h.02l.02.01.02.01.03.02.02.01.02.01.02.01.02.02.02.01.02.02.02.01.02.02.01.01.02.02.02.02.02.02.01.02.02.01.01.02.02.02.01.02.01.03.02.02.01.02.01.02.01.02.01.03.01.02.01.02.01.03.01.02.01.02v.03l.01.02v.03l.01.02v.02l.01.03v.17l-.01.02v.05l-.01.02v.03l-.01.02-.01.03v.02l-.01.02-.01.02-.01.03-.01.02-.01.02-.01.02-.01.03-.02.02-.01.02-.02.02-.01.02-.08.12-.08.12-.08.12-.08.12-.08.12-.08.12-.08.12-.08.12-.07.13-.08.12-.08.12-.07.12-.08.13-.07.12-.08.12-.07.13-.08.12-.07.13-.07.12-.07.13-.08.12-.07.13-.07.12-.07.13-.07.12-.07.13-.07.13-.07.12-.06.13-.07.13-.07.13-.06.13-.07.12-.07.13-.06.13-.07.13-.06.13-.06.13-.07.13-.06.13-.09.19-.1.2-.09.19-.1.19-.09.2-.09.19-.09.19-.09.2-.09.19-.09.2-.09.19-.09.2-.09.19-.09.2-.09.19-.09.2-.08.2-.09.19-.08.2-.09.2-.08.19-.09.2-.08.2-.09.2-.08.19-.08.2-.08.2-.08.2-.09.2-.08.2-.08.2-.07.2-.08.2-.08.2-.08.2-.08.2-.07.2-.08.2-.07.2-.08.2-.08.22-.09.23-.08.22-.08.22-.08.23-.08.22-.08.23-.08.22-.08.23-.08.22-.07.23-.08.22-.07.23-.08.22-.07.23-.08.23-.07.22-.07.23-.07.23-.07.22-.07.23-.07.23-.07.23-.07.22-.07.23-.07.23-.06.23-.07.23-.06.23-.07.23-.06.23-.06.23-.06.23-.07.23-.06.23-.06.23-.06.23-.05.23-.06.23-.06.23-.05.22-.06.21-.05.22-.05.21-.05.22-.05.21-.05.22-.04.22-.05.22-.04.21-.04.22-.04.22-.04.22-.04.22-.03.21-.04.22-.03.22-.03.22-.04.22-.03.22-.02.22-.03.22-.03.22-.02.22-.02.22-.03.22-.02.22-.02.22-.01.22-.02.22-.01.23-.02.22-.01.22-.01.22-.01.22-.01.22-.01.22v.23l-.01.22v.46l.01.08v.24l.01.08v.16l.01.08v.08l.01.08v.08l.01.07.01.08v.08l.01.08.01.08v.08l.01.08.01.08.01.08.01.08.01.08.01.08.01.08.01.08.01.07.01.08.01.08.01.08.01.08.02.08.01.08.01.08.02.07.01.08.02.08.01.08.01.07.02.08.01.07.02.07.01.08.02.07.01.07.02.08.02.07.01.07.02.08.02.07.02.07.02.07.02.08.02.07.02.07.02.07.02.07.02.08.03.07.02.07.02.07.03.07.02.07.03.07.02.07.03.07.03.07.02.07.03.07.03.07.03.07.03.07.03.07.03.07.03.07.03.06.03.07.03.07.03.06.02.05.03.06.03.05.03.06.03.05.03.06.03.05.03.06.03.05.03.06.03.05.04.05.03.05.03.06.04.05.03.05.04.05.03.05.04.05.04.05.04.05.03.05.04.05.04.05.04.05.04.04.04.05.04.05.04.05.04.04.05.05.04.04.04.05.05.04.04.05.04.04.05.04.04.05.05.04.04.04.04.03.05.03.04.04.04.03.05.03.04.03.05.03.05.03.04.03.05.02.05.03.04.02.05.03.05.02.05.02.05.02.05.02.05.02.05.02.05.02.05.01.06.02.05.01.05.02.05.01.06.01.05.01.05.01.06.01h.05l.05.01.06.01h.68l.07-.01H178.01l.08-.01h.07l.07-.01.08-.01h.07l.08-.01.07-.01.07-.01.08-.01.07-.01.07-.01.08-.02.07-.01.07-.01.08-.02.07-.01.07-.02.07-.01.08-.02.07-.02.07-.02.07-.02.07-.02.07-.02.08-.02.07-.02.07-.02.07-.02.07-.03.07-.02.07-.03.07-.02.07-.03.07-.03.07-.02.06-.03.07-.03.07-.03.07-.03.06-.03.07-.03.07-.03.06-.03.07-.03.06-.03.07-.04.07-.03.06-.03.07-.04.06-.03.06-.03.07-.04.06-.03.07-.04.06-.04.06-.03.07-.04.06-.04.06-.04.06-.03.07-.04.06-.04.06-.04.06-.04.06-.04.06-.04.06-.04.06-.05.06-.04.06-.04.06-.04.06-.05.06-.04.06-.04.05-.04.06-.04.05-.05.06-.04.05-.04.06-.04.05-.04.06-.05.05-.04.06-.04.05-.05.06-.04.05-.04.05-.05.06-.04.05-.05.05-.04.06-.05.05-.04.05-.05.05-.04.06-.05.05-.04.05-.05.05-.04.05-.05.06-.05.05-.04.05-.05.05-.05.05-.04.05-.05.05-.05.05-.05.05-.05.05-.04.05-.05.05-.05.05-.05.03-.03.03-.03.03-.03.03-.03.03-.03.03-.03.03-.03.03-.03.03-.03.03-.03.03-.03.03-.03.03-.03.03-.03.02-.03.03-.03.03-.03.03-.03.03-.03.02-.03.03-.02.03-.03.03-.03.02-.03.03-.03.03-.03.02-.02.03-.03.02-.03.03-.03.05-.05.05-.05.03-.03.02-.03.05-.05.05-.05-.02-.02-.02-.02-.02-.02-.02-.03-.01-.02-.02-.02-.02-.02-.02-.03-.02-.02-.02-.02-.02-.02-.02-.03-.01-.02-.02-.03-.02-.02-.02-.02-.02-.03-.02-.02-.02-.03-.02-.02-.02-.03-.02-.02-.02-.03-.01-.02-.02-.03-.02-.03-.02-.02-.02-.03-.02-.03-.02-.02-.02-.03-.02-.03-.02-.02-.02-.03-.02-.03-.02-.03-.02-.03-.02-.02-.02-.03-.02-.03-.04-.06-.04-.06-.04-.06-.04-.06-.04-.06-.04-.06-.03-.06-.04-.06-.04-.06-.04-.06-.03-.06-.04-.07-.04-.06-.03-.06-.04-.06-.03-.06-.04-.07-.03-.06-.04-.06-.03-.06-.04-.07-.03-.06-.04-.06-.03-.07-.03-.06-.03-.06-.04-.07-.03-.06-.03-.06-.03-.07-.03-.06-.03-.07-.03-.06-.03-.07-.03-.06-.03-.07-.03-.06-.03-.07-.03-.06-.03-.07-.04-.09-.04-.1-.03-.09-.04-.09-.04-.1-.03-.09-.04-.09-.03-.1-.04-.09-.03-.1-.03-.09-.04-.09-.03-.1-.03-.09-.03-.1-.03-.1-.03-.09-.03-.1-.03-.09-.03-.1-.03-.1-.03-.09-.02-.1-.03-.09-.03-.1-.02-.1-.03-.1-.02-.09-.02-.1-.03-.1-.02-.1-.02-.09-.02-.1-.02-.1-.03-.1-.02-.1-.01-.09-.02-.1-.02-.1-.02-.1-.02-.14-.03-.14-.02-.14-.02-.13-.02-.14-.03-.14-.02-.14-.02-.14-.01-.14-.02-.14-.02-.14-.02-.14-.01-.14-.02-.14-.01-.14-.02-.14-.01-.13-.01-.14-.02-.14-.01-.14-.01-.14-.01-.14-.01-.14-.01-.14-.01-.14v-.14l-.01-.14-.01-.15v-.14l-.01-.14v-.14l-.01-.14v-1.31l.01-.19.01-.19.01-.18v-.19l.01-.19.01-.19.02-.19.01-.18.01-.19.02-.19.02-.19.01-.18.02-.19.02-.19.02-.19.02-.18.02-.19.03-.19.02-.18.03-.19.02-.19.03-.18.03-.19.03-.18.03-.19.03-.18.04-.19.03-.19.03-.18.04-.19.04-.18.04-.18.03-.19.04-.18.05-.19.04-.18.04-.18.04-.19.05-.18.05-.21.05-.2.05-.21.05-.21.05-.2.06-.21.05-.21.06-.2.06-.21.06-.2.06-.21.06-.2.06-.2.07-.21.06-.2.07-.2.07-.2.07-.2.07-.2.07-.21.07-.2.07-.2.08-.19.07-.2.08-.2.08-.2.08-.2.08-.19.08-.2.09-.2.08-.19.08-.2.09-.19.09-.2.09-.19.09-.19.09-.2.09-.19.1-.19.09-.19.09-.18.09-.18.09-.17.09-.18.09-.18.1-.17.1-.18.09-.17.1-.17.1-.17.11-.17.1-.17.11-.17.1-.17.11-.16.11-.17.11-.16.12-.17.11-.16.12-.16.11-.16.12-.16.12-.16.12-.16.12-.15.13-.16.12-.15.13-.16.13-.15.13-.15.13-.15.13-.15.13-.15.14-.14.13-.15.14-.14.14-.15.14-.14.14-.14.14-.14.13-.13.14-.13.14-.13.14-.12.14-.12.15-.11.14-.12.15-.11.15-.1.16-.11.15-.1.16-.1.16-.09.16-.09.16-.09.16-.09.17-.08.16-.08.17-.07.17-.08.17-.06.17-.07.18-.06.17-.06.18-.06.17-.05.18-.05.18-.04.18-.04.18-.04.18-.03.19-.03.18-.03.18-.03.19-.02.18-.01.19-.01.19-.01.18-.01H197.84l.22.01.23.02.23.02.23.03.23.04.23.04.23.06.23.06.22.08.23.08.22.09.22.11.22.11.22.13.21.13.2.15.21.17.19.17.2.19.18.21.18.21.18.23.17.25.16.26.15.28.14.3.14.31.13.33.12.34.11.37.1.38.09.4.07.42.07.44.06.46.04.48.03.5.02.52.01.54-.01.22v.22l-.01.22-.02.22-.01.22-.02.22-.01.22-.02.22-.03.22-.02.22-.03.22-.02.22-.03.21-.04.22-.03.22-.03.22-.04.21-.04.22-.04.21-.05.22-.04.22-.05.21-.05.21-.05.22-.05.21-.06.21-.06.22-.05.21-.07.21-.06.21-.06.21-.07.21-.07.21-.07.21-.07.21-.07.21-.08.2-.08.21-.08.2-.08.21-.09.23-.08.22-.09.23-.09.22-.09.23-.09.22-.1.23-.09.22-.09.23-.1.22-.09.22-.1.23-.1.22-.1.22-.09.22-.1.22-.1.22-.11.22-.1.22-.1.22-.11.22-.1.22-.11.22-.1.22-.11.22-.11.21-.11.22-.11.22-.11.21-.11.22-.11.21-.12.22-.11.21-.11.22-.12.21-.12.21-.11.22-.12.21-.12.21-.12.21-.12.21-.12.2-.12.21-.12.2-.12.21-.11.2-.12.2-.12.2-.12.2-.12.2-.12.2-.12.19-.12.2-.11.19-.12.2-.12.19-.12.19-.12.19-.12.19-.11.19-.12.19-.12.18-.12.19-.12.18-.11.18-.12.19-.12.18-.12.18-.11.17-.12.18-.12.18-.12.17-.11.18-.12.17-.12.17-.11.17-.12.17-.12.17-.11.16-.12.17-.09.13-.09.12-.09.13-.09.12-.08.12-.09.12-.09.12-.08.12-.08.11-.08.12-.09.11-.08.11-.08.11-.07.11-.08.1-.08.11-.07.1-.08.1-.07.1-.07.1-.07.09-.07.1-.07.09-.07.09-.07.09-.07.09-.06.08-.07.09-.06.08-.07.08-.06.08-.06.08-.06.08-.06.08-.06.07-.06.07-.05.08-.06.06-.06.07-.05.07.02.02.03.01.02.02.03.01.02.01.02.02.03.01.02.02.03.01.02.02.03.01.02.02.03.01.02.01.03.02.02.01.02.01.03.02.02.01.03.01.02.02.03.01.02.01.03.02.03.01.02.01.03.02.02.01.03.01.02.01.03.01.02.02.03.01.02.01.03.01.03.01.02.02.03.01.02.01.03.01.09.03.09.03.1.03.09.03.09.02.09.03.1.03.09.02.09.02.1.03.09.02.1.02.09.02.09.02.1.02.09.01.1.02.09.01.1.02.1.01.09.01.1.02.09.01.1.01.09.01h.1l.1.01.09.01h.1l.09.01H194.76l.1.01h.1l.09-.01h.2l.09-.01h.1l.19-.01.19-.01.19-.02.19-.02.19-.02.19-.02.19-.03.19-.03.18-.03.19-.03.19-.04.18-.04.19-.04.18-.04.19-.05.18-.05.18-.05.18-.06.18-.06.18-.06.18-.06.18-.06.18-.07.17-.07.18-.08.17-.07.18-.08.17-.08.17-.08.17-.09.17-.08.17-.09.16-.1.17-.09.16-.1.16-.1.16-.1.16-.1.16-.11.16-.11.18-.12.19-.13.18-.12.18-.13.18-.13.18-.13.18-.13.18-.13.18-.13.18-.13.17-.13.18-.14.17-.13.18-.14.17-.13.18-.14.17-.14.17-.14.17-.14.17-.14.17-.14.17-.14.17-.14.17-.15.17-.14.16-.15.17-.15.16-.14.17-.15.16-.15.16-.15.16-.15.16-.15.16-.16.16-.15.16-.15.16-.16.16-.16.15-.15.16-.16.15-.15.15-.16.15-.15.15-.16.15-.15.15-.16.15-.16.14-.15.15-.16.15-.16.14-.16.15-.16.14-.16.15-.16.14-.16.14-.16.14-.16.15-.16.14-.16.14-.17.14-.16.14-.16.14-.17.14-.16.13-.17.14-.16.14-.17.14-.17.13-.16.14-.17.13-.17.14-.17.13-.17.13-.16.14-.17.13-.17.13-.18.13-.17.13-.17.13-.17.12-.17.12-.16.12-.16.12-.16.11-.16.11-.16.12-.15.11-.16.11-.15.11-.15.1-.15.11-.14.1-.15.11-.14.1-.14.1-.14.1-.13.09-.14.1-.13.09-.13.1-.13.09-.13.09-.12.09-.13.08-.12.09-.12.08-.12.09-.12.08-.11.08-.12.07-.11.08-.11.08-.11.07-.1.07-.11.07-.1.07-.1.07-.1.07-.1.06-.1.01-.02.02-.01.01-.02.01-.02.02-.01.02-.02.01-.01.02-.02.02-.01.02-.01.02-.01.02-.02.02-.01.02-.01.03-.01.02-.01.02-.01.03-.01h.03l.02-.01.03-.01.03-.01h.03l.03-.01h.03l.03-.01h.03l.03-.01H219.43l.03-.01h.2l.04.01h.08l.03.01.03.01.03.02.03.01.03.02.03.01.02.02.03.02.03.02.02.02.03.02.02.02.02.02.02.02.02.03.02.02.02.03.02.02.02.03.01.02.02.03.01.03.01.03.01.03.01.03.01.03.01.03.01.03.01.03v.03l.01.03v.19l-.01.03v.04l-.01.03-.86 2.68-.01.01v.02l-.01.01v.02l-.01.01v.01l-.01.01v.01l-.01.01v.01l-.01.02-.01.01v.01l-.01.01-.01.01v.01l-.01.01v.01l-.01.01-.01.01v.01h-.01v.01l-.01.01-.06.09-.07.08-.07.09-.07.1-.06.09-.08.1-.07.09-.07.1-.07.1-.08.11-.08.1-.08.11-.08.11-.08.11-.08.11-.08.11-.08.12-.09.12-.09.12-.08.12-.09.12-.09.13-.1.12-.09.13-.09.13-.1.13-.09.14-.1.13-.1.14-.1.14-.1.14-.1.14-.11.14-.1.15-.11.15-.1.15-.11.15-.11.15-.11.15-.11.16-.12.17-.13.17-.12.17-.13.17-.12.17-.13.17-.12.16-.13.17-.13.17-.13.17-.13.16-.13.17-.13.16-.13.17-.13.16-.13.16-.14.17-.13.16-.13.16-.14.16-.13.16-.14.16-.14.16-.13.16-.14.16-.14.16-.14.16-.14.15-.14.16-.14.16-.14.15-.14.16-.15.15-.14.16-.14.15-.15.15-.14.16-.15.15-.14.15-.15.15-.16.16-.15.16-.16.16-.16.15-.16.16-.16.16-.16.15-.16.15-.16.16-.17.15-.16.15-.16.15-.17.15-.17.15-.16.14-.17.15-.17.14-.17.15-.17.14-.17.14-.18.15-.17.14-.17.14-.18.13-.18.14-.17.14-.18.13-.18.14-.18.13-.17.13-.18.13-.19.13-.18.13-.18.13-.18.13-.19.13-.18.12-.19.12-.18.13-.19.12-.18.12-.18.11-.18.12-.18.11-.19.1-.18.11-.19.1-.19.1-.19.1-.19.09-.19.09-.19.09-.2.08-.19.08-.2.08-.2.08-.19.07-.2.07-.21.07-.2.07-.2.06-.2.06-.21.05-.2.06-.21.05-.21.04-.2.05-.21.04-.21.03-.21.04-.21.03-.21.03-.21.03-.21.02-.21.02-.22.01-.21.02-.21.01-.22.01h-.42l-.1-.01h-.11l-.1-.01h-.1l-.11-.01-.1-.01h-.1l-.11-.01-.1-.01-.1-.02-.11-.01-.1-.01-.1-.01-.1-.02-.11-.02-.1-.01-.1-.02-.1-.02-.1-.02-.11-.02-.1-.02-.1-.02-.1-.02-.1-.03-.1-.02-.1-.03-.1-.02-.1-.03-.1-.03-.1-.03-.1-.03-.1-.03-.1-.03-.1-.03-.1-.03-.09-.04-.1-.03-.1-.04-.07-.03-.07-.02-.08-.03-.07-.02-.07-.03-.07-.03-.07-.02-.07-.03-.08-.03-.07-.03-.07-.02-.07-.03-.07-.03-.07-.03-.07-.03-.07-.02-.07-.03-.08-.03-.07-.03-.07-.03-.07-.03-.07-.03-.07-.03-.07-.03-.07-.03-.07-.03-.07-.03-.07-.03-.07-.03-.07-.04-.07-.03-.07-.03-.07-.03-.07-.03-.06-.04-.07-.03-.07-.03-.07-.03-.07-.04-.07-.03-1.49 1.79-.08.09-.08.1-.08.09-.08.09-.09.1-.08.09-.08.09-.08.09-.09.1-.08.09-.08.09-.09.09-.08.09-.09.09-.08.09-.09.09-.09.09-.08.09-.09.09-.09.08-.08.09-.09.09-.09.09-.09.08-.08.09-.09.09-.09.08-.09.09-.09.08-.09.09-.09.08-.09.09-.09.08-.1.09-.09.08-.09.08-.09.08-.09.09-.1.08-.09.08-.11.09-.1.1-.11.09-.11.09-.11.1-.11.09-.11.09-.11.09-.11.09-.11.09-.12.08-.11.09-.11.09-.12.08-.11.09-.12.08-.11.09-.12.08-.11.08-.12.08-.12.08-.12.08-.12.08-.11.08-.12.08-.12.08-.12.07-.12.08-.13.07-.12.08-.12.07-.12.07-.13.08-.12.07-.12.07-.13.07-.12.07-.13.07-.12.06-.13.07-.13.07-.13.07-.13.06-.13.07-.13.06-.14.06-.13.06-.14.06-.13.06-.14.05-.13.05-.14.05-.14.05-.14.05-.13.05-.14.04-.14.04-.14.04-.14.04-.15.04-.14.03-.14.04-.14.03-.14.03-.15.03-.14.02-.14.03-.15.02-.14.02-.15.02-.14.02-.15.02-.14.01-.15.01-.15.01-.14.01-.15.01-.15.01H173.28l-.13.01-.13-.01h-.13l-.13-.01h-.13l-.13-.01-.13-.02-.13-.01-.13-.02-.12-.02-.13-.02-.13-.03-.12-.03-.13-.03-.12-.03-.13-.03-.12-.04-.12-.04-.12-.04-.12-.04-.13-.05-.11-.05-.12-.05-.12-.05-.12-.06-.11-.05-.12-.06-.11-.06-.11-.07-.11-.06-.11-.07-.11-.07-.11-.07-.11-.08-.1-.07-.11-.08-.1-.08-.1-.09-.1-.08-.09-.08-.08-.08-.09-.08-.09-.09-.08-.08-.08-.09-.09-.08-.08-.09-.08-.09-.08-.09-.08-.08-.07-.09-.08-.1-.07-.09-.08-.09-.07-.09-.08-.1-.07-.09-.07-.1-.07-.09-.06-.1-.07-.1-.07-.1-.06-.09-.07-.1-.06-.1-.06-.11-.06-.1-.06-.1-.06-.1-.06-.11-.06-.1-.05-.11-.06-.1-.05-.11-.05-.11-.05-.1-.05-.11-.05-.11-.05-.11-.05-.11-.05-.12-.04-.11-.05-.11-.04-.11-.05-.12-.04-.11-.04-.12-.04-.11-.05-.12-.04-.11-.03-.12-.04-.11-.04-.12-.04-.12-.03-.11-.04-.12-.03-.12-.04-.11-.03-.12-.03-.12-.03-.12-.04-.11-.02-.12-.03-.12-.03-.12-.03-.12-.03-.12-.02-.12-.03-.12-.02-.12-.02-.12-.03-.12-.02-.12-.02-.12-.02-.12-.02-.12-.02-.12-.01-.12-.02-.12v-.04l-.01-.04-.01-.08-.01-.08v-.04l-.01-.08-.01-.04-.01-.08v-.04l-.01-.08-.01-.04-.01-.08v-.04l-.01-.07v-.04l-.01-.08-.01-.04v-.04l-.01-.07v-.04l-.01-.08-.01-.04v-.04l-.01-.07v-.04l-.01-.04-.01-.07v-.04l-.87 1.42-.08.12-.08.13-.08.12-.08.12-.08.12-.08.12-.08.12-.08.12-.09.12-.08.12-.08.12-.09.12-.08.12-.09.12-.08.12-.09.11-.08.12-.09.12-.09.11-.09.12-.09.12-.08.11-.09.12-.09.11-.09.11-.1.12-.09.11-.09.11-.09.12-.09.11-.1.11-.09.11-.1.11-.09.11-.1.11-.09.11-.1.11-.1.11-.09.11-.1.11-.1.11-.11.12-.1.11-.1.11-.11.11-.11.12-.1.11-.11.1-.11.11-.11.11-.11.11-.11.11-.11.1-.11.11-.11.1-.12.1-.11.11-.11.1-.12.1-.11.1-.12.1-.12.1-.12.1-.11.1-.12.09-.12.1-.12.09-.12.1-.12.09-.13.09-.12.1-.12.09-.13.09-.12.09-.13.09-.12.09-.13.08-.12.09-.13.09-.13.08-.12.08-.13.08-.12.08-.13.08-.12.07-.13.08-.13.07-.13.07-.13.06-.13.07-.13.06-.14.06-.13.06-.14.06-.13.05-.14.06-.14.05-.13.05-.14.05-.14.04-.14.04-.14.04-.14.04-.14.04-.15.04-.14.03-.14.03-.15.03-.14.03-.14.02-.15.02-.15.02-.14.02-.15.02-.14.01-.15.01-.15.01-.14.01-.15.01h-.82l-.22-.02-.22-.02-.22-.02-.22-.03-.22-.04-.21-.04-.21-.05-.22-.05-.2-.06-.21-.07-.21-.07-.2-.07-.2-.08-.2-.09-.2-.09-.19-.1-.2-.1-.19-.1-.18-.11-.18-.12-.18-.12-.18-.13-.18-.13-.17-.13-.16-.14-.17-.15-.16-.15-.15-.15-.15-.16-.15-.16-.15-.17-.14-.17-.13-.17-.13-.18-.13-.18-.12-.19-.12-.19-.13-.22-.12-.21-.12-.22-.11-.22-.12-.22-.11-.23-.1-.22-.11-.23-.1-.22-.09-.23-.1-.23-.09-.23-.08-.24-.09-.23-.08-.23-.08-.24-.07-.24-.07-.23-.07-.24-.06-.24-.06-.24-.06-.24-.05-.24-.05-.25-.04-.24-.05-.24-.04-.25-.03-.24-.03-.25-.03-.24-.03-.25-.02-.25-.02-.25-.01-.24-.02-.25v-.25l-.01-.25v-.5l.01-.25v-.62l-.05.05-.06.07-.03.03-.03.04-.03.03-.02.02-.03.03-.01.02-.02.02-.02.01-.01.02-.02.02-.01.01-.02.02-.01.02-.04.03-.01.02-.02.01-.01.02-.02.01-.01.02-.02.02-.02.01-.01.02-.02.02-.01.01-.02.02-.02.02-.01.01-.02.02-.15.16-.15.15-.15.16-.15.15-.15.16-.15.15-.15.15-.16.15-.15.16-.15.15-.16.15-.15.15-.16.15-.15.15-.16.14-.16.15-.15.15-.16.14-.16.15-.16.15-.16.14-.16.14-.16.15-.16.14-.17.14-.16.14-.16.14-.16.15-.17.13-.16.14-.17.14-.16.14-.17.14-.17.13-.17.14-.16.14-.17.13-.17.13-.17.14-.17.13-.17.13-.16.12-.17.13-.17.12-.16.13-.17.12-.17.12-.17.12-.17.12-.17.12-.18.12-.17.12-.17.11-.17.12-.18.11-.17.12-.18.11-.18.11-.17.11-.18.11-.18.11-.18.11-.18.1-.18.11-.18.1-.18.11-.18.1-.18.1-.18.1-.19.1-.18.1-.19.1-.18.09-.19.1-.18.09-.19.1-.19.09-.18.09-.19.09-.19.09-.26.13-.25.12-.26.12-.26.11-.27.11-.26.1-.27.1-.26.09-.27.09-.27.09-.27.07-.27.08-.28.07-.27.06-.28.06-.27.06-.28.05-.28.04-.28.04-.28.04-.27.03-.29.02-.28.02-.28.02-.28.01H118.35l-.29-.01-.28-.02-.28-.02-.28-.02-.28-.03-.28-.04-.28-.04-.28-.04-.28-.05-.28-.05-.28-.06-.28-.07-.07-.02-.07-.02-.07-.02-.07-.02-.07-.02-.08-.02-.07-.01-.07-.02-.07-.02-.07-.02-.07-.02-.07-.03-.07-.02-.06-.02-.07-.02-.07-.02-.07-.02-.07-.02-.07-.02-.07-.02-.07-.02-.06-.03-.07-.02-.07-.02-.07-.02-.06-.02-.07-.02-.07-.03-.06-.02-.07-.02-.07-.02-.06-.03-.07-.02-.06-.02-.07-.02-.06-.03-.07-.02-.06-.02-.07-.03-.06-.02-.05.03-.06.03-.06.03-.06.03-.06.03-.06.03-.07.03-.06.03-.07.03-.07.04-.07.03-.07.04-.07.03-.08.04-.07.03-.08.04-.08.04-.08.04-.08.04-.09.04-.08.04-.09.04-.09.04-.09.04-.09.05-.1.04-.09.04-.1.05-.1.04-.1.05-.1.05-.11.05-.1.04-.11.05-.11.05-.11.05-.11.05-.12.05-.11.06-.12.05-.17.07-.16.07-.17.06-.17.06-.17.07-.17.06-.17.05-.17.06-.17.05-.17.06-.17.05-.17.04-.18.05-.17.05-.18.04-.17.04-.17.04-.18.04-.17.03-.18.04-.18.03-.17.03-.18.03-.18.02-.17.03-.18.02-.18.02-.18.02-.18.02-.18.01-.17.02-.18.01-.18.01h-.18l-.18.01h-.18l-.18.01h-.18l-.18-.01h-.45l-.26-.01-.26-.01-.25-.02-.26-.02-.25-.02-.25-.03-.24-.03-.24-.04-.24-.04-.24-.05-.23-.05-.23-.05-.22-.06-.23-.07-.21-.07-.22-.07-.21-.07-.21-.08-.21-.09-.2-.09-.2-.09-.2-.1-.19-.1-.19-.1-.19-.11-.18-.12-.18-.12-.18-.12-.17-.12-.17-.13-.16-.14-.17-.13-.15-.15-.16-.14-.15-.15-.15-.16-.14-.15-.14-.16-.14-.17-.13-.17-.13-.17-.13-.18-.12-.17-.12-.19-.12-.18-.11-.19-.11-.19-.11-.19-.1-.2-.1-.2-.1-.2-.09-.21-.09-.21-.09-.21-.09-.21-.08-.22-.07-.22-.08-.23-.06-.23-.07-.23-.06-.23-.06-.24-.06-.24-.05-.24-.05-.24-.05-.25-.04-.25-.04-.26-.04-.26-.03-.26-.03-.26-.03-.27-.02-.26-.02-.28-.01-.27-.01-.28-.01-.28-.01-.28V194.66l.01-.05v-.18l.01-.04v-.09l.01-.05v-.14l.01-.04v-.09l.01-.05v-.14l.01-.04v-.09l.01-.05v-.19l.01-.04v-.28l-.04.05-.05.05-.04.05-.05.05-.04.05-.05.05-.04.06-.05.05-.04.05-.04.05-.05.05-.04.05-.05.05-.04.05-.05.05-.04.05-.05.05-.04.05-.05.05-.04.05-.05.05-.04.05-.05.05-.04.05-.05.05-.05.05-.04.05-.05.05-.04.05-.05.04-.04.05-.05.05-.05.05-.04.05-.05.05-.04.05-.05.05-.05.05-.04.05-.05.05-.15.16-.15.16-.15.15-.15.16-.15.16-.15.15-.16.16-.15.16-.15.15-.15.16-.16.15-.15.15-.16.16-.15.15-.16.15-.15.15-.16.16-.16.15-.15.15-.16.15-.16.15-.16.15-.16.15-.16.15-.16.14-.16.15-.16.15-.16.14-.16.15-.16.15-.16.14-.16.15-.17.14-.16.15-.16.14-.17.14-.16.14-.17.15-.16.14-.17.14-.15.13-.16.13-.15.13-.15.13-.16.13-.16.12-.15.13-.16.12-.16.13-.16.12-.16.12-.16.13-.16.12-.16.12-.16.12-.16.11-.16.12-.17.12-.16.11-.17.12-.16.11-.17.11-.17.12-.16.11-.17.11-.17.11-.17.11-.17.1-.17.11-.17.1-.17.11-.17.1-.18.11-.17.1-.17.1-.18.1-.17.1-.18.1-.17.09-.18.1-.15.08-.15.08-.14.08-.15.08-.16.08-.15.07-.15.07-.15.07-.16.07-.15.07-.16.06-.15.06-.16.07-.16.05-.16.06-.16.06-.16.05-.16.05-.16.05-.16.04-.16.05-.16.04-.17.04-.16.04-.16.04-.17.03-.16.04-.17.03-.16.03-.17.02-.17.03-.16.02-.17.02-.17.02-.17.02-.16.01-.17.01-.17.02h-.17l-.17.01h-.35l-.12-.01h-.11l-.12-.01-.11-.02-.11-.01-.12-.02-.11-.03-.11-.02-.11-.03-.11-.03-.11-.03-.11-.03-.11-.04-.11-.04-.1-.04-.11-.05-.1-.05-.1-.05-.1-.05-.1-.05-.1-.06-.1-.06-.1-.06-.09-.07-.09-.06-.1-.07-.09-.07-.08-.07-.09-.08-.09-.08-.08-.08-.08-.08-.08-.08-.08-.09-.07-.09-.08-.09-.07-.09-.07-.09-.07-.1-.06-.1-.06-.09-.07-.1-.06-.1-.05-.1-.06-.1-.06-.11-.05-.1-.05-.1-.05-.11-.05-.1-.04-.11-.05-.1-.04-.11-.04-.11-.04-.11-.04-.11-.03-.11-.04-.11-.03-.11-.03-.11-.03-.11-.02-.11-.03-.12-.02-.11-.02-.11-.02-.12-.02-.11-.01-.12-.01-.11-.01-.12-.01-.11-.01-.12-.01-.11V201.16l.01-.1v-.09l.01-.1.01-.09v-.1l.01-.09.01-.09.01-.1.01-.09.01-.1.01-.09.01-.09.01-.1.02-.09.01-.09.02-.1.01-.09.02-.09.02-.1.01-.09.02-.09.02-.09.02-.1.02-.09.02-.09.02-.09.03-.09.02-.1.02-.09.03-.09.02-.09.03-.09.03-.09.02-.09.03-.09.03-.09.03-.09.03-.09.03-.09.03-.1.03-.1.04-.1.03-.1.03-.1.03-.1.03-.1.03-.1.03-.1.04-.1.03-.1.03-.1.03-.1.03-.09.03-.1.03-.1.03-.1.03-.09.03-.1.03-.1.03-.09.02-.1.03-.1.03-.09.03-.1.03-.09.03-.1.03-.09.03-.09.02-.1.03-.09.03-.09.03-.1.03-.09.02-.09.03-.09.03-.1.03-.09.02-.09.03-.09 14.08-44.73.07-.24.08-.24.07-.24.08-.24.07-.24.07-.23.07-.24.08-.24.07-.23.07-.24.07-.23.07-.24.07-.23.07-.23.06-.23.07-.23.07-.24.07-.23.06-.22.07-.23.06-.23.07-.23.06-.22.07-.23.06-.22.06-.23.06-.22.07-.22.06-.22.06-.23.06-.22.06-.22.06-.21.06-.22.06-.22.05-.21.06-.22.06-.21.05-.22.06-.21.04-.15.05-.15.04-.15.04-.15.04-.15.04-.15.04-.15.04-.15.04-.15.03-.15.04-.16.04-.15.03-.15.03-.15.04-.15.03-.16.03-.15.03-.15.03-.16.02-.15.03-.15.03-.16.02-.15.03-.15.02-.16.02-.15.03-.16.02-.15.02-.15.02-.16.01-.15.02-.16.02-.15.01-.16.02-.15.01-.16.02-.15.01-.16.01-.15.01-.16v-.05l.01-.05v-.34l-.01-.05v-.05l-.01-.05v-.05l-.01-.05-.01-.04-.01-.05-.01-.05-.01-.05-.01-.05-.01-.04-.01-.05-.02-.05-.01-.04-.02-.05-.01-.05-.02-.04-.02-.05-.02-.04-.02-.05-.02-.04-.02-.05-.02-.04-.02-.04-.02-.05-.03-.04-.02-.04-.03-.05-.03-.04-.02-.04-.03-.04-.03-.03-.03-.03-.03-.03-.03-.04-.03-.03-.03-.03-.03-.03-.03-.02-.03-.03-.03-.03-.04-.03-.03-.03-.03-.02-.04-.03-.03-.03-.03-.02-.04-.03-.03-.02-.04-.03-.03-.02-.04-.02-.03-.02-.04-.03-.04-.02-.03-.02-.04-.02-.04-.02-.04-.02-.04-.02-.03-.02-.04-.02-.04-.02-.04-.01-.04-.02-.04-.02-.04-.01-.04-.02-.04-.01-.04-.02-.04-.01-.05-.02-.05-.02-.06-.01-.05-.02-.05-.02-.05-.01-.06-.02-.05-.01-.05-.02-.06-.01-.05-.02-.05-.01-.06-.02-.05-.01-.05-.01-.06-.02-.05-.01-.05-.01-.06-.01-.05-.01-.05-.01-.06-.01-.05-.01-.06-.01-.05-.01-.05-.01-.06-.01-.05-.01-.06-.01h-.05l-.06-.01-.05-.01h-.06l-.05-.01-.06-.01h-.05l-.06-.01h-.05l-.06-.01h-.05l-.06-.01h-.07l-.06-.01-.06-.01h-.06l-.07-.01h-.06l-.06-.01h-.06l-.06-.01h-.07l-.06-.01h-.12l-.06-.01h-.18l-.06-.01h-.36l-.06-.01H77.72l-.02-.01h-.06l-.02-.01h-.02l-.02-.01h-.02l-.02-.01h-.02l-.02-.01-.02-.01h-.01l-.02-.01-.02-.01-.02-.01-.02-.01-.02-.01-.01-.01-.02-.01-.02-.01-.01-.01-.02-.01-.02-.01-.01-.02-.02-.01-.01-.01-.02-.01-.01-.02-.02-.01-.01-.02-.02-.01-.01-.02-.01-.01-.02-.02-.01-.01-.01-.02-.01-.02-.01-.01-.02-.02-.01-.02-.01-.02-.01-.01-.01-.02-.01-.02v-.02l-.01-.02-.01-.02-.01-.01v-.02l-.01-.02-.01-.02v-.02l-.01-.02v-.04l-.01-.02v-.06l-.01-.02v-.1l.01-.02v-.06l.01-.02v-.02l.01-.02v-.02l.01-.02v-.02l.01-.02.54-1.62.01-.02.01-.03.01-.02.01-.02.01-.03.01-.02.01-.02.02-.02.01-.02.01-.02.02-.02.01-.02.02-.02.01-.02.02-.02.02-.02.02-.01.01-.02.02-.02.02-.01.02-.02.02-.01.02-.01.02-.02.02-.01.03-.01.02-.01.02-.01.02-.01.03-.01.02-.01.02-.01.03-.01h.02l.02-.01.03-.01h.05l.02-.01h.03l16.55-1.4h.11zm14.57 42.3l-.33.36-.32.38-.32.37-.32.39-.31.38-.31.39-.3.39-.3.4-.29.4-.29.4-.28.41-.28.41-.27.41-.27.42-.34.54-.33.55-.32.55-.31.56-.31.56-.3.56-.29.57-.28.57-.27.58-.27.58-.25.58-.25.59-.24.59-.23.6-.23.6-.21.6-.22.63-.2.64-.19.64-.17.64-.16.65-.15.65-.13.65-.12.65-.1.66-.09.66-.08.66-.06.66-.05.67-.03.67-.02.66-.01.67-.01.43.01.42.02.42.04.42.05.42.07.42.08.41.1.41.12.41.12.4.15.4.16.39.17.39.18.38.21.37.21.37.22.28.23.27.26.25.28.23.3.21.32.19.35.17.36.16.39.14.4.12.43.1.45.08.47.07.49.04.52.03.53.01h.2l.09-.01h.2l.1-.01.1-.01.09-.01.1-.01.1-.01.1-.01.09-.01.1-.01.1-.02.09-.01.1-.02h.07l-.07-.07-.06-.06-.07-.07-.06-.06-.07-.07-.06-.06-.07-.07-.06-.07-.06-.06-.06-.07-.06-.07-.06-.06-.06-.07-.06-.07-.06-.06-.06-.07-.14-.16-.13-.17-.13-.17-.13-.17-.13-.17-.12-.18-.13-.17-.11-.18-.12-.18-.11-.18-.12-.18-.1-.19-.11-.18-.1-.19-.1-.19-.1-.19-.11-.23-.11-.23-.11-.24-.1-.23-.1-.24-.09-.24-.09-.24-.09-.24-.08-.25-.07-.24-.07-.25-.07-.25-.07-.25-.05-.25-.06-.25-.05-.25-.06-.33-.05-.32-.05-.33-.05-.33-.04-.33-.04-.33-.04-.33-.03-.33-.02-.33-.03-.33-.01-.33-.02-.33-.01-.33V188.15l.01-.58.02-.58.02-.59.04-.58.04-.58.05-.59.06-.58.06-.58.08-.58.08-.58.09-.57.1-.58.11-.57.12-.58.12-.57.08-.34.09-.36.11-.38.11-.39.13-.41.14-.44.15-.45.17-.47.17-.48.19-.51.2-.52.21-.55.22-.56.24-.58.24-.59.26-.62.15-.3.14-.29.16-.3.15-.29.16-.29.16-.29.16-.29.17-.29.17-.28.18-.28.18-.28.18-.28.18-.27.19-.28.19-.27.19-.27-.34.36-.34.37zm10.56-5.13l-.34.03-.33.05-.34.06-.32.08-.33.09-.31.11-.32.12-.3.14-.3.15-.29.16-.29.18-.27.2-.27.2-.26.22-.24.23-.24.25-.31.31-.3.32-.29.32-.29.33-.28.33-.27.34-.27.35-.26.35-.25.35-.25.36-.24.36-.23.37-.23.37-.22.38-.21.38-.2.39-.2.39-.22.44-.21.44-.21.45-.2.45-.19.45-.19.45-.18.46-.18.46-.17.46-.16.46-.16.47-.15.47-.15.46-.14.48-.13.47-.13.47-.12.48-.11.44-.1.44-.1.45-.09.44-.08.45-.08.45-.07.45-.07.45-.06.45-.05.45-.05.45-.04.45-.03.45-.03.46-.02.45-.01.46-.01.45.01.67.01.65.04.64.04.62.05.59.07.59.08.56.1.54.1.53.12.51.13.49.14.47.15.45.16.43.18.42.19.39.2.38.17.31.18.3.18.29.19.29.2.29.2.28.22.28.21.27.23.27.23.26.23.25.25.25.25.25.25.23.26.23.27.23.27.22.2-.18.2-.19.21-.19.19-.18.2-.19.2-.19.19-.2.2-.19.19-.19.19-.2.19-.2.19-.2.19-.2.18-.2.19-.2.18-.2.18-.21.31-.36.31-.36.3-.37.3-.36.3-.38.29-.37.29-.38.28-.38.28-.39.27-.38.27-.39.27-.4.26-.39.26-.4.25-.41.25-.4.24-.41.28-.48.28-.48.27-.49.26-.49.26-.49.25-.5.25-.49.24-.5.24-.51.23-.5.22-.51.22-.51.21-.52.21-.52.2-.51.19-.53.19-.52.19-.55.18-.55.17-.56.15-.55.15-.57.13-.56.12-.56.11-.57.1-.57.09-.58.07-.57.07-.58.05-.57.04-.58.03-.58.01-.58.01-.58v-.81l-.03-.41-.03-.4-.04-.4-.06-.4-.07-.4-.08-.39-.09-.4-.11-.39-.11-.38-.13-.39-.14-.38-.15-.37-.16-.37-.18-.37-.18-.36-.16-.28-.17-.27-.19-.25-.21-.24-.22-.22-.24-.2-.24-.19-.26-.17-.27-.15-.28-.14-.29-.12-.29-.09-.31-.08-.31-.06-.31-.03-.32-.02-.32.01-.34.01zm74.24-1.07l-.19.03-.2.05-.2.08-.21.09-.2.12-.22.13-.21.16-.22.17-.22.2-.22.22-.23.23-.23.26-.29.35-.28.36-.27.37-.27.37-.26.37-.25.38-.24.39-.24.39-.22.39-.22.4-.21.41-.21.41-.19.41-.23.51-.23.51-.21.51-.21.52-.2.52-.2.52-.18.53-.18.53-.17.53-.16.53-.16.54-.14.54-.14.54-.09.37-.09.41-.09.43-.08.46-.08.49-.07.52-.08.55-.06.58-.07.61-.06.64-.06.67-.06.69-.05.73-.01.34v.35l.01.34.01.34.02.34.02.34.03.35.04.34.03.34.05.34.05.33.06.34.06.34.06.24.06.24.06.24.07.24.07.24.07.24.08.24.08.23.08.24.09.23.09.23.09.23.1.23.07.16.07.17.07.16.08.15.08.16.08.16.09.15.09.15.09.16.1.14.1.15.1.15.1.14.52.64.21-.27.21-.27.2-.27.21-.28.2-.27.2-.28.19-.28.2-.28.19-.28.19-.29.18-.28.19-.29.18-.29.28-.45.28-.46.27-.46.27-.46.26-.47.26-.47.25-.47.25-.47.24-.48.23-.48.23-.48.23-.48.22-.49.24-.54.23-.55.23-.55.22-.55.21-.56.2-.55.19-.56.19-.57.18-.56.17-.57.17-.57.15-.57.15-.58.15-.59.13-.6.13-.6.11-.6.1-.6.09-.6.07-.61.07-.6.05-.61.04-.61.04-.61.01-.61.01-.61v-.17l-.01-.17v-.17l-.01-.17-.01-.17-.01-.17-.01-.17-.01-.17-.01-.17-.02-.16-.02-.17-.02-.17-.02-.17-.02-.16-.03-.16-.03-.15-.03-.16-.03-.16-.04-.15-.04-.15-.05-.16-.05-.15-.05-.15-.05-.15-.06-.15-.06-.15-.05-.12-.05-.12-.06-.11-.06-.11-.07-.11-.07-.11-.07-.1-.08-.11-.08-.1-.08-.09-.09-.09-.09-.09-.1-.09-.1-.07-.1-.07-.11-.06-.11-.05-.11-.05-.11-.04-.12-.03-.12-.03-.11-.02-.12-.02h-.13l-.12-.01-.12.01-.19.01z" id="c"/><path d="M240.56 202.12c-.75-.41-1.45-.91-2.09-1.47.58-5.16 1.51-10.27 2.78-15.3 1.39-5.6 3-11.26 4.77-16.82 1.77-5.56 3.67-11 5.63-16.25s3.81-9.93 5.53-14.16c.11-.27.07-.58-.09-.82a.753.753 0 00-.74-.36c-5.82.15-11.61.71-17.35 1.67-4.6.73-9.05 2.22-13.17 4.4a23.38 23.38 0 00-8.64 8.09 27.276 27.276 0 00-3.67 12.53c-.02.29.1.57.33.74.23.18.53.23.8.14.65-.21 5.81-1.93 6.45-2.15.42-.14.66-.57.57-1-.15-.83-.39-1.64-.7-2.42a5.38 5.38 0 01-.36-1.94c-.06-2.42.64-4.81 2-6.81 1.48-2.04 3.4-3.72 5.63-4.9 2.59-1.4 5.37-2.41 8.25-3a47.16 47.16 0 019.77-1c.55 0 1.09 0 1.61.05h.43c-1 2.06-2 4.52-3.11 7.34-1.32 3.35-2.71 7.1-4.15 11.16-1.44 4.06-2.88 8.3-4.3 12.65s-2.74 8.72-3.86 12.8c-1.12 4.08-2.16 7.94-3 11.54-.75 3.01-1.34 6.06-1.74 9.13-.03.25.05.51.23.69.16.17.39.27.62.27h.01c9.22-.64 14.35-1 15.37-1.07.39-.03.71-.32.79-.7.09-.38-.1-.78-.45-.95-1.91-.92-3.31-1.62-4.15-2.08z" id="d"/><path d="M277.02 135.32h.11l.11.01h.11l.11.01h.11l.11.01.11.01.11.01.11.01.11.01.11.01.11.01.11.02.11.01.11.02.1.01.11.02.11.02.11.02.11.02.11.02.1.02.11.03.11.02.11.02.1.03.11.03.11.02.1.03.11.03.11.03.1.03.11.04.1.03.11.03.1.04.11.03.1.04.07.03.07.02.08.03.07.03.08.03.07.04.08.03.08.04.08.03.08.04.09.05.08.04.09.04.08.05.09.05.09.05.09.05.09.05.1.06.09.05.1.06.09.06.1.06.1.06.1.07.1.06.1.07.11.07.1.07.11.07.11.07.11.08.11.08.11.07.11.08.11.09.12.08.11.08.12.09.12.09.09.08.08.08.09.08.08.09.09.08.08.09.08.08.08.09.08.08.08.09.08.09.08.09.07.09.08.09.07.09.08.09.07.1.07.09.07.09.07.1.07.09.07.1.07.1.06.09.07.1.06.1.07.1.06.1.06.1.06.1.06.11.06.1.06.1.05.11.06.1.05.1.06.11.05.11.05.1.05.11.05.12.05.13.05.13.05.12.05.13.04.12.05.13.04.13.04.13.04.13.04.13.04.12.03.13.04.13.03.13.03.14.03.13.03.13.03.13.02.13.03.13.02.14.02.13.02.13.02.13.02.14.01.13.02.13.01.14.01.13.01.14.01.13.01.14.01.13v1.57l-.01.25-.01.25-.02.25-.02.25-.03.25-.03.25-.04.25-.04.25-.04.25-.05.24-.05.25-.05.24-.06.24-.07.25-.07.24-.07.23-.08.24-.08.24-.08.23-.09.24-.09.23-.1.23-.1.23-.1.23-.11.22-.11.23-.12.22-.12.22-.12.22-.13.21-.13.22-.14.21-.14.21-.14.21-.15.21-.15.2-.15.2-.15.19-.16.19-.15.18-.16.19-.16.18-.16.18-.16.18-.17.18-.16.18-.17.17-.17.18-.17.17-.17.17-.17.17-.18.17-.17.17-.18.16-.18.16-.18.16-.18.16-.19.16-.18.16-.19.15-.19.16-.19.15-.19.15-.19.15-.19.14-.2.15-.19.14-.2.14-.2.14-.2.14-.2.13-.2.14-.2.13-.21.13-.2.13-.21.12-.21.13-.21.13-.22.12-.21.12-.21.13-.22.12-.22.12-.21.11-.22.12-.22.12-.22.11-.22.11-.22.11-.22.11-.22.11-.22.11-.22.11-.23.1-.22.1-.23.11-.22.1-.23.1-.22.1-.23.09-.23.1-.23.09-.22.09-.23.1-.23.09-.23.08-.23.09-.24.09-.23.08-.23.09-.23.08-.24.08-.23.08-.23.08-.24.07-.23.08-.24.07-.14.04-.13.04-.13.04-.14.04-.13.04-.13.04-.14.04-.13.04-.13.04-.13.04-.13.04-.13.03-.13.04-.13.04-.12.03-.13.04-.13.04-.12.03-.13.04-.12.03-.13.04-.12.03-.13.04-.12.03-.12.04-.12.03-.13.03-.12.03-.12.04-.12.03-.12.03-.12.03-.11.03-.12.03-.12.03-.12.03-.11.03-.12.03-.12.03-.11.03.11.03.1.03.11.02.1.03.11.03.11.03.1.03.11.03.1.03.11.03.11.03.1.03.11.04.1.03.11.03.1.03.11.03.1.04.11.03.1.03.11.03.1.04.11.03.1.04.1.03.11.04.1.03.11.04.1.03.11.04.1.03.1.04.11.04.1.03.1.04.11.04.1.04.1.03.11.04.1.04.19.07.19.07.19.07.18.08.19.07.19.08.18.08.19.08.18.08.19.08.18.08.18.09.18.08.19.09.18.09.18.09.18.09.18.09.18.09.17.09.18.1.18.1.17.09.18.1.17.1.18.1.17.1.17.11.18.1.17.11.17.11.17.1.17.11.16.11.17.11.17.12.17.11.16.12.17.11.16.12.16.12.16.11.16.12.15.12.16.13.15.12.15.12.15.13.15.13.15.13.15.13.14.13.15.13.14.14.14.14.14.13.14.14.14.14.13.14.14.15.13.14.13.15.13.14.13.15.13.15.12.15.13.15.12.16.12.15.12.16.12.15.12.16.12.16.11.16.11.16.11.17.11.16.11.17.11.16.1.17.11.18.1.19.1.19.1.18.1.19.09.19.09.19.09.2.09.19.08.19.08.2.08.2.07.19.07.2.07.2.07.2.06.2.06.21.06.2.06.2.05.21.05.2.04.21.05.2.04.21.04.21.03.21.03.2.03.21.03.21.02.21.02.21.02.22.01.21.02.21v.21l.01.21V187.55l-.01.2v.19l-.01.2-.01.19-.02.2-.01.19-.02.19-.02.2-.02.19-.03.19-.02.19-.03.2-.03.19-.04.19-.03.19-.04.19-.04.19-.04.19-.05.19-.04.18-.05.19-.05.19-.06.18-.05.19-.06.19-.06.18-.06.18-.06.19-.07.18-.07.18-.07.18-.07.18-.08.18-.07.18-.08.18-.08.17-.09.18-.08.18-.09.17-.09.18-.1.19-.1.18-.1.18-.1.17-.1.18-.11.18-.1.17-.11.18-.11.17-.11.17-.11.18-.12.17-.11.16-.12.17-.12.17-.12.16-.13.17-.12.16-.13.16-.12.16-.13.16-.13.16-.14.15-.13.16-.14.15-.13.16-.14.15-.14.15-.14.14-.15.15-.14.15-.15.14-.14.14-.15.15-.15.14-.16.13-.15.14-.15.14-.16.13-.17.14-.17.15-.18.14-.17.14-.18.13-.18.14-.18.13-.18.14-.18.13-.18.13-.18.13-.18.12-.19.13-.19.12-.18.12-.19.12-.19.12-.19.12-.19.11-.19.12-.2.11-.19.11-.19.11-.2.11-.2.1-.19.11-.2.1-.2.1-.2.1-.2.09-.21.1-.2.09-.2.09-.21.1-.2.08-.21.09-.2.09-.21.08-.21.08-.21.08-.23.09-.23.08-.24.08-.23.08-.24.08-.23.07-.24.08-.23.07-.24.07-.24.06-.24.07-.23.06-.24.06-.24.06-.24.05-.24.06-.24.05-.25.05-.24.04-.24.05-.24.04-.25.04-.24.04-.24.03-.25.04-.24.03-.25.02-.24.03-.25.03-.24.02-.25.02-.24.01-.25.02-.25.01-.24.01-.25.01-.25.01h-1.12l-.38-.01-.38-.01-.37-.02-.36-.02-.37-.03-.35-.03-.36-.03-.34-.05-.35-.04-.34-.05-.33-.06-.34-.06-.32-.06-.32-.07-.32-.08-.32-.08-.31-.08-.3-.09-.3-.1-.3-.1-.29-.1-.29-.11-.28-.12-.28-.11-.27-.13-.27-.13-.27-.13-.26-.14-.25-.14-.26-.15-.24-.15-.25-.16-.23-.16-.24-.17-.23-.17-.22-.18-.22-.18-.22-.19-.21-.19-.21-.2-.2-.2-.19-.21-.2-.22-.18-.22-.18-.23-.18-.24-.17-.24-.16-.25-.16-.25-.16-.26-.15-.27-.14-.27-.14-.28-.13-.29-.13-.29-.13-.3-.12-.3-.11-.32-.11-.31-.1-.33-.1-.33-.09-.33-.09-.34-.08-.35-.07-.35-.07-.37-.07-.36-.06-.37-.06-.38-.05-.39-.04-.39-.04-.39-.03-.41-.03-.41-.03-.41-.02-.42-.01-.43-.01-.43v-.64l.01-.2v-.2l.01-.2.01-.2v-.2l.01-.2.01-.19.01-.2.01-.2.01-.2.02-.2.01-.2.01-.2.02-.2.02-.2.01-.19.02-.2.02-.2.02-.2.02-.2.02-.2.02-.2.02-.19.02-.2.03-.2.02-.2.03-.2.02-.19.03-.2.03-.2.02-.2.03-.19.03-.2.03-.2.04-.19.03-.2.03-.2.04-.19.03-.2.04-.24.04-.25.04-.24.05-.24.04-.25.04-.24.05-.24.04-.25.05-.24.05-.24.04-.24.05-.25.05-.24.05-.24.05-.24.05-.25.05-.24.05-.24.05-.24.05-.24.06-.24.05-.24.05-.25.06-.24.05-.24.06-.24.06-.24.05-.24.06-.24.06-.24.06-.24.06-.24.06-.24.06-.24.06-.24.06-.24.07-.23.06-.24.07-.24.06-.24.07-.25.06-.25.07-.25.07-.25.07-.25.07-.25.07-.25.07-.25.08-.25.07-.25.07-.25.08-.25.07-.26.08-.25.07-.25.08-.25.07-.25.08-.25.08-.26.08-.25.08-.25.08-.25.08-.26.08-.25.08-.25.08-.25.08-.25.09-.26.08-.25.08-.25.09-.25.08-.26.09-.25.08-.25.09-.25.09-.25.08-.26.09-.25.09-.25.09-.25.08-.23.08-.23.08-.23.09-.23.08-.23.09-.23.08-.23.09-.23.09-.23.08-.23.09-.23.09-.23.09-.22.09-.23.1-.23.09-.23.09-.22.1-.23.09-.22.1-.23.1-.22.09-.23.1-.22.1-.23.1-.22.1-.22.1-.23.11-.22.1-.22.1-.22.11-.22.11-.23.1-.22.11-.22.11-.22.11-.22.11-.21.11-.22.11-.22.11-.22.26-.49.27-.49.26-.48.27-.47.27-.46.27-.46.27-.45.27-.45.27-.44.28-.43.28-.42.27-.42.28-.41.28-.41.29-.39.28-.39.29-.39.28-.38.29-.37.29-.36.29-.36.29-.34.3-.35.29-.33.3-.33.3-.32.3-.32.3-.31.3-.3.3-.29.31-.29.31-.28.3-.28.31-.26.31-.26.32-.26.31-.24.32-.24.31-.23.32-.23.32-.22.32-.21.32-.21.31-.2.32-.2.32-.19.32-.19.32-.18.31-.18.32-.17.32-.16.32-.16.31-.15.32-.15.32-.14.31-.14.32-.13.32-.13.31-.12.32-.11.31-.11.32-.1.31-.1.31-.09.32-.09.31-.08.32-.08.31-.07.31-.06.31-.06.31-.05.32-.05.31-.04.31-.04.31-.03.31-.03.31-.01.3-.02.31-.01h.53zm-24.99 34.36h-.06l-.06.01h-.19l-.06.01h-.06l-.12.01h-.06l-.06.01h-.19l-.06.01h-.24l-.03.01h-.06l-.03.01h-.03l-.03.01h-.06l-.03.01h-.03l-.02.01h-.09l-.03.01h-.08l-.87 3-.07.24-.07.24-.07.25-.06.25-.07.25-.07.25-.07.26-.07.27-.06.26-.07.27-.07.27-.06.28-.07.28-.06.28-.07.29-.06.29-.07.29-.06.3-.07.3-.06.3-.06.31-.06.3-.07.31-.06.31-.06.32-.06.31-.06.32-.05.32-.06.32-.06.32-.05.33-.06.32-.05.33-.05.33-.05.33-.06.33-.05.33-.04.34-.05.33-.05.34-.05.32-.04.32-.04.32-.04.32-.03.32-.04.32-.03.33-.03.32-.03.32-.02.32-.03.32-.02.33-.02.32-.01.32-.02.32-.01.33-.01.32v.32l-.01.33v.76l.01.24.01.24.02.26.03.26.03.28.04.28.04.3.05.3.05.32.06.32.06.33.07.35.07.35.08.37.09.37.09.38.1.4.1.4.09.22.09.22.09.22.1.21.1.21.11.21.12.21.11.21.13.2.12.2.13.19.14.2.14.19.14.18.15.19.15.18.16.18.16.17.16.17.17.17.16.15.17.15.17.14.17.14.18.13.18.13.18.12.18.13.19.11.19.11.19.11.2.1.2.1.2.09.2.09.2.08.21.08.21.08.21.07.21.06.24.07.24.06.24.06.24.05.25.06.24.05.25.04.24.04.25.04.24.04.25.03.24.03.25.02.25.02.25.02.25.01.24.01.25.01H259.49l.32-.01.33-.02.33-.03.32-.03.33-.04.32-.05.32-.05.32-.06.32-.07.32-.07.32-.08.31-.09.32-.09.31-.1.31-.11.3-.11.31-.12.3-.13.27-.12.26-.13.26-.13.25-.14.26-.15.25-.14.24-.16.24-.16.24-.16.24-.18.23-.17.23-.18.22-.19.22-.19.22-.19.21-.2.21-.21.2-.21.2-.21.19-.22.19-.23.19-.23.18-.24.18-.24.17-.24.17-.24.16-.25.16-.25.15-.26.15-.25.14-.26.14-.26.14-.27.12-.27.13-.27.12-.27.11-.27.11-.28.1-.28.1-.28.1-.3.09-.31.09-.31.09-.31.07-.3.08-.32.07-.31.06-.31.06-.31.05-.32.05-.31.04-.32.04-.32.03-.31.03-.32.02-.32.01-.32.01-.32.01-.32v-1.02l-.01-.35-.02-.35-.02-.34-.03-.35-.04-.35-.04-.34-.05-.35-.06-.34-.07-.34-.07-.34-.08-.34-.08-.34-.09-.34-.1-.33-.11-.33-.11-.33-.12-.33-.12-.33-.11-.27-.12-.27-.12-.26-.13-.27-.13-.26-.14-.26-.14-.25-.15-.26-.15-.25-.16-.24-.16-.25-.16-.24-.17-.24-.18-.23-.17-.23-.19-.23-.18-.23-.19-.22-.2-.22-.2-.21-.19-.2-.2-.19-.2-.19-.21-.19-.2-.18-.21-.18-.21-.18-.22-.17-.22-.17-.22-.16-.22-.17-.22-.16-.23-.15-.23-.15-.23-.15-.24-.15-.23-.14-.24-.14-.25-.13-.24-.13-.24-.12-.23-.12-.24-.12-.24-.11-.24-.11-.24-.11-.24-.11-.25-.11-.24-.1-.24-.1-.25-.1-.25-.1-.24-.09-.25-.09-.25-.09-.25-.09-.25-.09-.25-.08-.26-.08-.25-.08-.22-.07-.22-.07-.23-.06-.22-.06-.23-.06-.22-.06-.22-.06-.23-.06-.23-.05-.22-.05-.23-.05-.23-.05-.23-.04-.22-.04-.23-.05-.23-.03-.23-.04-.23-.04-.23-.03-.23-.03-.17-.02-.17-.02-.17-.02-.17-.02-.16-.02-.17-.02-.17-.02-.17-.01-.17-.02-.17-.01-.17-.01-.17-.01-.17-.01-.17-.01-.17-.01-.17-.01-.17-.01h-.17l-.17-.01H252.03zm20.71-29.39l-.61.06-.61.08-.6.12-.6.14-.58.17-.58.19-.57.23-.55.24-.55.28-.53.3-.52.33-.5.35-.49.37-.47.4-.45.42-.61.6-.61.62-.59.62-.57.64-.57.64-.55.66-.54.67-.52.68-.51.69-.5.7-.48.71-.47.71-.46.73-.44.74-.43.75-.41.75-.13.21-.13.21-.12.21-.13.21-.12.22-.12.21-.12.22-.12.21-.11.22-.12.22-.11.22-.1.22-.11.22-.11.22-.1.23-.1.22-.11.25-.11.25-.1.25-.11.24-.1.25-.1.24-.1.24-.1.25-.1.24-.1.24-.09.25-.1.24-.09.24-.09.25-.09.24-.09.25-.09.24-.08.24-.09.24-.08.22-.08.23-.08.22-.07.21-.08.21-.07.2-.07.2-.07.19-.07.19-.06.19-.07.18-.06.18-.06.18-.01.04-.02.05-.01.04-.02.04-.01.04-.02.04-.01.04-.01.04-.02.04-.01.03-.01.04-.01.03-.02.04-.01.03-.01.03-.01.03.23.02.22.02.23.02.22.02.23.02.23.01.23.02.22.01.23.01.23.01.23.01.23.01h.23l.23.01h1.08l.62-.02.62-.03.61-.04.62-.06.61-.07.61-.08.61-.1.61-.11.61-.12.6-.13.6-.15.6-.16.59-.17.59-.18.59-.2.54-.19.53-.2.52-.21.52-.22.52-.23.51-.25.51-.25.5-.27.49-.28.49-.28.48-.3.47-.31.47-.32.47-.32.45-.34.45-.35.39-.32.39-.34.38-.34.37-.35.36-.36.35-.36.35-.38.33-.38.33-.39.32-.4.3-.4.3-.41.29-.42.28-.43.27-.43.26-.44.23-.41.21-.42.2-.42.19-.43.17-.43.16-.44.14-.45.13-.44.11-.46.1-.45.08-.46.07-.46.06-.47.04-.46.02-.47.01-.47v-.33l-.01-.33-.03-.33-.05-.33-.05-.32-.07-.32-.09-.32-.09-.31-.11-.31-.13-.3-.14-.3-.14-.29-.17-.28-.17-.28-.19-.28-.2-.26-.24-.26-.25-.24-.26-.22-.27-.21-.29-.19-.29-.18-.31-.15-.31-.14-.32-.12-.33-.1-.33-.08-.34-.06-.34-.05-.34-.02h-.35l-.35.02-.62.03z" id="e"/><path d="M336.59 159.33c.09-.21.09-.46 0-.67a.936.936 0 00-.46-.48 8.342 8.342 0 00-3.25-.82c-3.24.07-6.35 1.26-8.81 3.36-2.9 2.36-5.49 5.08-7.68 8.11a79.23 79.23 0 00-6.58 10.65c-2 3.83-3.71 7.5-5.18 10.91-.67 1.54-1.27 3-1.82 4.37 1.12-3.63 10.1-32.66 11.22-36.29.08-.27.03-.57-.15-.79a.882.882 0 00-.74-.32l-16.23 1.4c-.34.03-.63.26-.74.58-.05.16-.49 1.45-.54 1.61-.09.26-.04.55.12.78.16.22.42.35.69.35h2c4.3 0 4.3 1.72 4.3 2.37-.03.97-.15 1.94-.36 2.89-.25 1.25-.56 2.56-.9 3.88-.34 1.32-.72 2.63-1.07 3.84a81.93 81.93 0 01-.85 2.77c-5.24 17.08-8.16 26.56-8.74 28.46a.85.85 0 00.82 1.11h.14c5.93-.97 9.22-1.5 9.88-1.61.33-.05.6-.29.69-.61.14-.48.57-1.8 1.33-4 .76-2.2 1.74-4.81 2.94-7.74 1.2-2.93 2.63-6.11 4.22-9.41 1.52-3.15 3.22-6.21 5.11-9.15 1.57-2.51 3.48-4.8 5.66-6.81 1.46-1.5 3.42-2.4 5.5-2.53 1.75 0 2.3.41 2.46.65.49.73.91 1.49 1.27 2.29.14.3.44.5.78.5s.65-.2.78-.52c2.51-5.48 3.91-8.52 4.19-9.13z" id="f"/><path d="M363.81 157.29l.15.01.15.01.14.01.15.02.14.02.15.02.14.02.15.03.14.03.14.03.14.03.14.04.14.04.14.04.14.05.14.04.13.05.14.05.14.06.13.06.13.06.13.06.13.06.13.07.13.07.13.07.12.08.13.07.12.08.12.08.12.09.12.08.12.09.11.09.12.1.11.09.11.1.12.12.12.12.11.12.11.13.11.13.1.13.1.13.1.13.1.14.09.13.09.14.08.14.08.15.08.14.08.15.07.14.07.15.07.15.06.15.06.16.06.15.05.16.05.15.05.16.04.16.04.16.04.16.03.16.03.17.03.16.02.16.02.17.01.16.02.17v.16l.01.17v.33l-.01.17-.01.17-.01.18-.01.17-.01.18-.02.18-.02.17-.01.18-.03.17-.02.18-.03.17-.02.18-.03.17-.04.17-.03.17-.04.18-.04.17-.04.17-.04.17-.04.17-.05.17-.05.17-.05.17-.06.16-.05.17-.06.17-.06.16-.06.17-.06.16-.07.17-.07.16-.06.16-.08.16-.07.16-.08.16-.07.16-.08.16-.08.15-.09.16-.08.15-.09.16-.09.15-.1.18-.11.19-.1.18-.11.18-.11.18-.1.18-.11.17-.12.18-.11.18-.11.17-.12.18-.12.17-.11.17-.12.17-.13.17-.12.17-.12.17-.13.17-.12.17-.13.16-.13.17-.13.16-.13.17-.13.16-.13.16-.14.16-.13.16-.14.16-.14.15-.14.16-.14.15-.14.16-.15.15-.14.15-.15.15-.14.15-.15.15-.15.15-.15.14-.15.15-.17.16-.17.15-.16.16-.18.15-.17.16-.17.15-.17.15-.18.14-.18.15-.17.15-.18.14-.18.14-.18.14-.19.14-.18.14-.18.13-.19.14-.19.13-.18.13-.19.13-.19.13-.19.13-.19.13-.2.12-.19.12-.19.12-.2.12-.2.12-.19.12-.2.11-.2.11-.2.12-.2.11-.21.1-.2.11-.2.11-.21.1-.21.1-.2.1-.21.1-.35.16-.34.15-.35.15-.36.14-.35.14-.35.13-.36.12-.36.11-.36.11-.37.11-.36.09-.36.09-.37.09-.37.07-.37.07-.37.07-.37.06-.37.05-.37.04-.38.04-.37.03-.38.03-.37.02-.38.01-.37.01h-.38l-.37-.01-.38-.02-.38-.02-.37-.02-.38-.03-.37-.04-.38-.05-.37-.05-.37-.06-.38-.07-.37-.07-.37-.08-.37-.09-.37-.09-.02.09-.03.08-.02.09-.02.08-.03.09-.02.09-.02.08-.03.09-.02.09-.02.08-.02.09-.03.08-.02.09-.02.09-.02.08-.02.09-.02.08-.03.09-.02.09-.02.08-.02.09-.02.08-.02.09-.02.09-.02.08-.02.09-.02.08-.02.09-.02.08-.01.09-.02.08-.02.09-.02.09-.02.08-.01.09-.02.08-.02.09-.02.08-.01.09-.02.08-.02.1-.02.1-.02.11-.02.1-.02.1-.02.1-.01.11-.02.1-.02.1-.01.1-.02.11-.01.1-.02.1-.01.11-.01.1-.02.1-.01.1-.01.11-.01.1-.01.1-.01.11-.01.1-.01.1-.01.11-.01.1-.01.11v.1l-.01.1-.01.11v.1l-.01.1v.11l-.01.1V192.17l-.01.1v.66l.01.23v.23l.01.22.02.22.01.22.02.22.02.21.03.21.02.2.03.2.04.2.03.19.04.19.04.19.05.19.04.18.06.17.05.18.05.17.06.16.06.17.07.16.07.15.07.15.07.15.07.15.08.14.08.14.09.13.08.13.09.13.1.12.09.12.1.12.1.11.1.11.11.11.11.1.11.1.14.11.15.1.15.1.15.1.15.1.15.09.15.09.15.09.16.08.16.08.16.08.16.08.16.07.16.07.16.06.17.07.16.06.17.06.17.05.17.06.17.05.17.04.17.04.17.05.17.03.17.04.18.03.17.03.18.02.17.02.18.02.18.02.17.01.18.01.18.01h.53l.18-.01.18-.01h.29l.3-.01.29-.01.29-.02.29-.01.29-.03.29-.02.29-.03.29-.04.29-.03.29-.04.29-.05.28-.05.29-.05.29-.05.28-.06.28-.07.29-.06.28-.07.28-.08.28-.07.28-.08.28-.09.27-.09.28-.09.27-.09.28-.1.27-.11.27-.1.27-.11.27-.11.27-.12.26-.12.27-.13.26-.12.26-.13.26-.14.26-.13.26-.15.25-.14.27-.15.26-.15.27-.16.26-.15.27-.16.26-.16.26-.16.26-.16.26-.16.26-.17.26-.16.25-.17.26-.17.25-.17.26-.17.25-.17.25-.18.25-.18.25-.17.25-.18.24-.18.25-.19.25-.18.24-.19.24-.18.24-.19.24-.19.24-.19.24-.19.24-.2.24-.19.23-.2.23-.2.24-.19.23-.21.23-.2.23-.2.23-.21.22-.2.23-.21.08-.07.08-.07.08-.07.07-.07.08-.07.08-.07.08-.07.07-.07.08-.07.08-.07.07-.08.08-.07.07-.07.08-.07.07-.07.08-.08.07-.07.07-.07.08-.08.07-.07.08-.07.07-.08.07-.07.08-.08.07-.07.07-.07.08-.08.07-.07.07-.08.08-.07.07-.08.08-.07.07-.08.07-.07.08-.08.07-.07.08-.08.07-.07.08-.08.07-.07.03-.15.02-.16.03-.15.03-.15.03-.16.03-.15.03-.15.03-.16.03-.15.03-.15.04-.15.03-.15.04-.16.03-.15.04-.15.04-.15.04-.15.04-.15.03-.15.05-.15.04-.15.04-.15.04-.15.05-.15.04-.15.05-.15.04-.15.05-.15.05-.15.04-.14.05-.15.05-.15.05-.15.06-.14.05-.15.05-.15.05-.14.06-.15.05-.14.06-.15.09-.25.1-.24.09-.25.1-.24.1-.24.1-.25.1-.24.1-.24.1-.25.1-.24.11-.24.1-.24.11-.24.11-.24.1-.24.11-.24.11-.24.12-.23.11-.24.11-.24.12-.23.11-.24.12-.24.12-.23.12-.23.12-.24.12-.23.12-.23.12-.24.13-.23.12-.23.13-.23.13-.23.13-.23.13-.23.13-.22.13-.23.13-.23.14-.22.13-.23.12-.2.13-.2.12-.2.12-.2.12-.19.12-.19.13-.2.12-.19.12-.19.11-.18.12-.19.12-.18.12-.19.12-.18.11-.18.12-.18.12-.17.11-.18.12-.17.11-.17.12-.18.11-.16.11-.17.11-.17.12-.16.11-.16.11-.17.11-.16.11-.15.11-.16.11-.15.1-.16.11-.15.11-.15.11-.15.1-.14.11-.15.1-.14.11-.14.1-.14.13-.18.12-.17.12-.16.11-.16.11-.15.1-.14.1-.14.09-.14.08-.13.08-.12.08-.12.07-.11.06-.11.07-.1.05-.1.06-.09.05-.09.04-.09.04-.08.04-.07.04-.07.03-.07.03-.06.02-.06.03-.05.02-.05.02-.05.01-.04.02-.04.01-.04.01-.03.01-.04v-.02l.01-.03v-.02l.01-.02v-.16l-.01-.03v-.04l-.01-.02-.01-.02v-.02l-.01-.02-.01-.02v-.03l-.01-.02-.01-.01-.01-.02-.01-.02-.01-.02-.02-.02-.01-.02-.01-.02-.02-.01-.01-.02-.01-.02-.02-.01-.01-.02-.02-.01-.02-.02-.01-.01-.02-.01-.02-.02-.02-.01-.02-.01-.02-.01-.02-.01-.02-.01-.02-.01-.02-.01-.02-.01-.04-.02-.03-.02-.04-.02-.04-.01-.03-.02-.04-.02-.04-.02-.04-.01-.04-.02-.03-.01-.04-.02-.04-.01-.04-.01-.04-.02-.04-.01-.04-.01-.04-.01-.04-.01-.04-.01-.04-.01-.04-.01-.04-.01-.04-.01-.04-.01-.04-.01h-.04l-.04-.01-.04-.01h-.04l-.04-.01h-.04l-.04-.01h-.08l-.04-.01h-.53l-.06.01h-.11l-.05.01h-.05l-.06.01-.05.01h-.05l-.06.01-.05.01-.05.01-.06.01-.05.01-.05.01-.05.01-.06.01-.05.02-.05.01-.05.02-.05.01-.06.02-.05.01-.05.02-.05.02-.05.01-.05.02-.05.02-.05.02-.05.02-.05.02-.05.02-.05.02-.05.03-.05.02-.02.01-.03.01-.02.01-.02.01-.03.01h-.02l-.02.01-.03.01h-.02l-.03.01h-.05l-.02.01H381.41l-.02-.01h-.05l-.02-.01h-.03l-.02-.01-.02-.01h-.03l-.02-.01-.02-.01-.03-.01-.02-.01-.02-.01-.02-.01-.02-.01-.03-.02-.02-.01-.02-.01-.02-.02-.02-.01-.02-.02-.02-.01-.02-.02-.02-.02-.01-.02-.02-.01-.02-.02-.01-.02-.02-.02-.01-.02-.02-.02-.01-.02-.01-.02-.01-.03-.02-.02-.01-.02-.01-.02-.01-.02-.01-.03v-.02l-.01-.02-.01-.03v-.02l-.01-.02-.01-.03v-.05l-.01-.02v-.17l.01-.03v-.05l.01-.02v-.03l.01-.02.75-2.69.01-.03.01-.02.01-.03.01-.02.01-.03.01-.02.01-.03.02-.02.01-.03.02-.02.01-.02.02-.02.01-.02.02-.02.02-.02.02-.02.02-.02.02-.02.02-.02.02-.01.02-.02.02-.01.02-.02.03-.01.02-.02.02-.01.03-.01.02-.01.03-.01.02-.01.03-.01.02-.01h.03l.03-.01.02-.01h.06l.02-.01h.06l16.77-.54h.18l.03.01h.02l.03.01h.02l.03.01.02.01.02.01.03.01.02.01.02.01.03.01.02.01.02.01.02.02.02.01.02.02.02.01.02.02.02.02.02.01.01.02.02.02.02.02.01.02.02.02.02.02.01.02.01.02.02.03.01.02.01.02.01.03.01.02.01.02.01.03.01.02.01.03v.02l.01.03.01.02v.05l.01.03v.22l-.01.02v.03l-.01.02v.03l-.01.02-.01.03-.01.02v.02l-.01.03-.01.02-.01.02-.02.02-.01.03-.01.02-.01.02-.02.02-.01.02-.02.02-.02.02-.01.02-.02.02-.07.08-.08.08-.08.09-.08.08-.08.09-.09.1-.08.09-.09.1-.09.1-.09.1-.09.11-.1.11-.1.11-.1.11-.1.11-.1.12-.11.12-.11.13-.11.12-.11.13-.11.13-.12.14-.12.13-.12.14-.12.15-.12.14-.13.15-.13.15-.13.15-.13.16-.14.16-.13.16-.14.16-.14.17-.15.17-.14.17-.15.18-.15.18-.16.18-.15.18-.16.2-.17.2-.16.2-.16.2-.16.2-.16.2-.16.2-.16.2-.16.2-.16.21-.16.2-.15.2-.16.21-.15.2-.16.21-.15.2-.16.21-.15.2-.15.21-.16.21-.15.21-.15.2-.15.21-.15.21-.15.21-.14.21-.15.21-.15.21-.14.22-.15.21-.14.21-.15.21-.14.22-.15.21-.14.21-.14.22-.14.21-.14.22-.14.21-.14.22-.15.24-.15.24-.15.24-.15.24-.15.24-.15.24-.15.24-.14.24-.14.25-.15.24-.14.25-.14.24-.14.25-.14.24-.14.25-.13.25-.14.25-.13.24-.13.25-.14.25-.13.25-.13.26-.13.25-.12.25-.13.25-.13.26-.12.25-.12.25-.12.26-.12.25-.12.26-.12.26-.12.25-.12.26-.11.26-.12.26-.11.26-.11.26-.11.26-.11.26-.1.24-.11.24-.09.25-.1.24-.09.25-.1.25-.08.24-.09.25-.09.25-.08.25-.08.25-.07.25-.08.25-.07.25-.07.26-.06.25-.07.25-.06.26-.06.25-.05.26-.06.26-.05.25-.05.26-.04.26-.05.26-.04.26-.04.26-.03.26-.03.26-.04.26-.02.26-.03.26-.02.26-.02.26-.02.27-.02.26-.01.26-.01.26-.01.27v1.05l.01.16v.16l.01.15.01.16.01.16.01.16.02.15.01.16.02.16.02.15.02.16.02.16.03.15.02.16.03.15.03.16.03.15.03.16.04.15.03.15.04.16.03.15.04.15.05.15.04.16.04.15.05.15.05.15.04.15.05.15.06.15.05.15.06.14.05.15.06.15.04.1.04.11.04.1.05.09.05.1.05.09.06.09.06.09.06.09.06.09.07.08.07.08.07.08.07.07.08.08.08.07.08.06.08.07.08.06.09.06.09.06.09.05.09.06.09.04.1.05.09.04.1.04.1.04.1.03.1.03.1.03.11.02.1.02.11.02.11.01.1.02h.76l.1-.01.11-.01.11-.01.1-.01.11-.01.1-.01.1-.02.11-.02.1-.02.1-.02.11-.02.1-.03.1-.02.1-.03.1-.03.1-.03.1-.04.1-.03.1-.04.1-.04.09-.04.1-.04.1-.04.09-.05.1-.04.09-.05.09-.05.09-.05.09-.06.09-.05.09-.06.09-.06.09-.06.09-.06.08-.06.09-.06.08-.07.1-.08.09-.07.09-.08.1-.08.09-.07.09-.08.09-.08.1-.08.09-.08.09-.09.09-.08.08-.08.09-.08.09-.09.09-.08.08-.09.09-.08.08-.09.09-.09.08-.09.08-.09.09-.08.08-.09.08-.09.08-.1.08-.09.08-.09.08-.09.07-.1.08-.09.08-.09.07-.1.08-.09.07-.1.07-.1.08-.1.07-.09.07-.1.07-.1.07-.1.07-.1.07-.1.07-.1.06-.1.07-.1.07-.1.06-.1.07-.1.06-.1.07-.1.06-.1.07-.1.06-.1.06-.11.07-.1.06-.1.06-.1.06-.11.06-.1.06-.11.06-.1.06-.1.06-.11.06-.1.05-.11.06-.1.06-.11.05-.11.06-.1.05-.11.06-.11.05-.1.06-.11.05-.11.05-.11.06-.1.05-.11.05-.11.05-.11.05-.11.05-.1.04-.1.05-.1.04-.1.05-.1.04-.1.05-.09.04-.1.04-.1.04-.09.04-.09.04-.1.04-.09.04-.09.04-.09.03-.09.04-.09.04-.08.03-.09.04-.08.03-.09.03-.08.04-.08.03-.09.03-.08.03-.08.03-.07.03-.08.03-.08.03-.07.02-.08.03-.07.03-.07.02-.07.03-.07.02-.07.02-.07.03-.06.02-.07.02-.06.06-.2.05-.2.06-.19.06-.2.06-.2.05-.19.06-.2.05-.2.06-.19.05-.2.06-.19.05-.2.06-.19.05-.19.06-.2.05-.19.06-.19.05-.2.05-.19.06-.19.05-.19.05-.19.05-.19.06-.19.05-.19.05-.19.05-.19.05-.19.06-.18.05-.19.05-.19.05-.19.05-.18.05-.19.05-.18.05-.19.05-.18.05-.18.05-.19.05-.18.05-.18.05-.18.05-.18.05-.18.05-.18.05-.18.05-.18.05-.17.05-.18.05-.17.05-.17.05-.18.05-.17.05-.17.06-.17.05-.17.05-.17.05-.16.05-.17.05-.16.05-.17.06-.16.05-.16.05-.17.05-.16.06-.16.05-.15.05-.16.05-.16.06-.16.05-.15.05-.15.05-.16.06-.15.05-.15.05-.15.06-.15.05-.15.06-.14.05-.15.05-.15.06-.14.06-.15.05-.15.06-.15.06-.14.06-.15.06-.15.06-.16.06-.15.06-.15.06-.15.06-.16.07-.15.06-.16.07-.15.06-.16.07-.15.07-.16.07-.16.06-.16.07-.16.07-.16.07-.16.07-.16.08-.16.07-.17.07-.16.08-.17.07-.16.08-.17.07-.16.08-.17.07-.17.08-.17.08-.17.08-.17.08-.17.08-.17.08-.17.08-.17.08-.18.09-.17.09-.18.08-.18.09-.18.09-.18.09-.19.1-.18.09-.19.1-.19.09-.19.1-.19.1-.19.1-.19.11-.2.1-.19.1-.2.11-.2.11-.2.11-.2.11-.2.11-.21.11-.2.12-.21.11-.2.12-.21.12-.21.12-.22.12-.21.12-.21.13-.22.12-.21.13-.22.12-.22.13-.22.13-.22.13-.22.14-.23.13-.22.01-.02.01-.02.01-.01.02-.02.01-.02.01-.01.01-.02.02-.01.01-.02.01-.01.02-.02.01-.01.02-.02.01-.01.02-.01.02-.02.01-.01.02-.01.02-.01.01-.01.02-.01.02-.01.02-.01.01-.01.02-.01.02-.01.02-.01.02-.01h.02l.02-.01.02-.01h.02l.02-.01h.02l.02-.01h.04l.02-.01h.04l6.34-.54H415.42l.03.01h.02l.03.01h.02l.02.01h.03l.02.01.02.01.03.01.02.01.02.01.02.01.03.01.02.01.02.01.02.02.02.01.02.01.02.02.02.01.02.02.01.02.02.01.02.02.02.02.01.02.02.02.01.02.02.02.01.02.02.02.01.02.01.02.01.02.01.02.02.03.01.02v.02l.01.03.01.02.01.02v.03l.01.02v.03l.01.02v.02l.01.03v.17l-.01.02v.05l-.01.02v.03l-.01.02-.01.03v.02l-.01.02-.01.02-.01.03-.01.02-.01.02-.01.02-.01.03-.02.02-.01.02-.02.02-.01.02-.08.12-.08.12-.08.12-.08.12-.08.12-.08.12-.08.12-.08.12-.07.13-.08.12-.08.12-.07.12-.08.13-.07.12-.08.12-.07.13-.08.12-.07.13-.07.12-.07.13-.08.12-.07.13-.07.12-.07.13-.07.12-.07.13-.07.13-.07.12-.06.13-.07.13-.07.13-.06.13-.07.12-.07.13-.06.13-.07.13-.06.13-.06.13-.07.13-.06.13-.09.18-.08.17-.09.18-.09.18-.08.18-.09.18-.09.19-.08.18-.09.19-.09.18-.08.19-.09.19-.09.19-.08.19-.09.19-.08.19-.09.2-.09.19-.08.2-.09.19-.08.2-.09.2-.08.2-.09.2-.08.2-.09.21-.08.2-.08.21-.09.2-.08.21-.09.21-.08.21-.08.21-.09.21-.08.21-.08.21-.08.21-.09.22-.08.21-.08.22-.08.22-.09.23-.08.22-.08.22-.08.23-.08.22-.08.23-.08.22-.08.23-.08.22-.07.23-.08.22-.07.23-.08.22-.07.23-.08.23-.07.22-.07.23-.07.23-.07.22-.07.23-.07.23-.07.23-.07.22-.07.23-.07.23-.06.23-.07.23-.06.23-.07.23-.06.23-.06.23-.06.23-.07.23-.06.23-.06.23-.06.23-.05.23-.06.23-.06.23-.05.22-.06.21-.05.22-.05.21-.05.22-.05.21-.05.22-.04.22-.05.22-.04.21-.04.22-.04.22-.04.22-.04.22-.03.21-.04.22-.03.22-.03.22-.04.22-.03.22-.02.22-.03.22-.03.22-.02.22-.02.22-.03.22-.02.22-.02.22-.01.22-.02.22-.01.23-.02.22-.01.22-.01.22-.01.22-.01.22-.01.22v.23l-.01.22v.46l.01.08v.24l.01.08v.16l.01.08v.08l.01.08v.08l.01.07.01.08v.08l.01.08.01.08v.08l.01.08.01.08.01.08.01.08.01.08.01.08.01.08.01.08.01.07.01.08.01.08.01.08.01.08.02.08.01.08.01.08.02.07.01.08.02.08.01.08.01.07.02.08.01.07.02.07.01.08.02.07.01.07.02.08.02.07.01.07.02.08.02.07.02.07.02.07.02.08.02.07.02.07.02.07.02.07.02.08.03.07.02.07.02.07.03.07.02.07.03.07.02.07.03.07.03.07.02.07.03.07.03.07.03.07.03.07.03.07.03.07.03.07.03.06.03.07.03.07.03.06.02.05.03.06.03.05.03.06.03.05.03.06.03.05.03.06.03.05.03.06.03.05.04.05.03.05.03.06.04.05.03.05.04.05.03.05.04.05.04.05.04.05.03.05.04.05.04.05.04.05.04.04.04.05.04.05.04.05.04.04.05.05.04.04.04.05.05.04.04.05.04.04.05.04.04.05.05.04.04.04.04.03.05.03.04.04.04.03.05.03.04.03.05.03.05.03.04.03.05.02.05.03.04.02.05.03.05.02.05.02.05.02.05.02.05.02.05.02.05.02.06.01.05.02.05.01.05.02.05.01.06.01.05.01.05.01.06.01h.05l.05.01h.06l.05.01h.63l.07-.01H410.94l.08-.01h.07l.07-.01.08-.01h.07l.08-.01.07-.01.07-.01.08-.01.07-.01.07-.01.08-.02.07-.01.07-.01.08-.02.07-.01.07-.02.07-.01.08-.02.07-.02.07-.02.07-.02.07-.02.07-.02.08-.02.07-.02.07-.02.07-.02.07-.03.07-.02.07-.03.07-.02.07-.03.07-.03.07-.02.06-.03.07-.03.07-.03.06-.02.07-.03.07-.03.06-.03.07-.03.06-.03.07-.04.07-.03.06-.03.07-.03.06-.03.06-.04.07-.03.06-.04.07-.03.06-.04.06-.03.07-.04.06-.03.06-.04.06-.04.07-.03.06-.04.06-.04.06-.04.06-.04.06-.04.06-.04.06-.04.06-.04.06-.04.06-.04.06-.04.06-.05.06-.04.06-.04.05-.04.06-.04.05-.05.06-.04.05-.04.06-.04.05-.04.06-.05.05-.04.06-.04.05-.05.06-.04.05-.04.05-.05.06-.04.05-.05.05-.04.06-.05.05-.04.05-.05.05-.04.06-.05.05-.04.05-.05.05-.04.05-.05.06-.05.05-.04.05-.05.05-.05.05-.04.05-.05.05-.05.05-.05.05-.05.05-.04.05-.05.05-.05.05-.05.03-.03.03-.03.03-.03.03-.03.03-.04.04-.03.03-.03.02-.03.03-.03.03-.03.03-.03.03-.03.03-.03.03-.03.03-.03.03-.02.02-.03.03-.03.03-.03.03-.03.02-.03.03-.03.03-.02.03-.03.02-.03.03-.03.02-.03.03-.02.05-.06.03-.02.02-.03.05-.05.05-.06.05-.05.05-.05-.02-.02-.02-.02-.01-.02-.02-.02-.02-.02-.02-.03-.02-.02-.02-.02-.01-.02-.02-.03-.02-.02-.02-.02-.02-.03-.02-.02-.02-.02-.02-.03-.02-.02-.01-.03-.02-.02-.02-.03-.02-.02-.02-.03-.02-.03-.02-.02-.02-.03-.02-.02-.02-.03-.02-.03-.02-.02-.02-.03-.01-.03-.02-.03-.02-.02-.02-.03-.02-.03-.02-.03-.02-.03-.02-.02-.02-.03-.02-.03-.04-.06-.04-.06-.04-.06-.04-.06-.04-.06-.04-.06-.04-.06-.04-.06-.03-.06-.04-.06-.04-.06-.04-.06-.03-.07-.04-.06-.04-.06-.03-.06-.04-.06-.03-.07-.04-.06-.03-.06-.04-.06-.03-.07-.03-.06-.04-.06-.03-.07-.03-.06-.04-.06-.03-.07-.03-.06-.03-.07-.03-.06-.03-.07-.03-.06-.03-.07-.03-.06-.03-.07-.03-.06-.03-.07-.03-.06-.03-.07-.04-.09-.04-.1-.03-.09-.04-.09-.04-.1-.03-.09-.04-.09-.03-.1-.04-.09-.03-.1-.04-.09-.03-.09-.03-.1-.03-.09-.03-.1-.04-.09-.03-.1-.03-.1-.02-.09-.03-.1-.03-.09-.03-.1-.03-.1-.02-.09-.03-.1-.02-.1-.03-.1-.02-.09-.03-.1-.02-.1-.02-.1-.02-.09-.02-.1-.03-.1-.02-.1-.02-.1-.02-.09-.01-.1-.02-.1-.02-.1-.02-.14-.03-.14-.02-.14-.02-.13-.02-.14-.03-.14-.02-.14-.02-.14-.01-.14-.02-.14-.02-.14-.02-.14-.01-.14-.02-.14-.01-.14-.02-.14-.01-.13-.01-.14-.02-.14-.01-.14-.01-.14-.01-.14-.01-.14-.01-.14-.01-.14v-.14l-.01-.14-.01-.15v-.14l-.01-.14v-.14l-.01-.14v-1.31l.01-.19.01-.19.01-.18v-.19l.01-.19.01-.19.02-.19.01-.18.01-.19.02-.19.02-.19.01-.18.02-.19.02-.19.02-.19.02-.18.02-.19.03-.19.02-.18.03-.19.02-.19.03-.18.03-.19.03-.18.03-.19.03-.18.04-.19.03-.19.03-.18.04-.19.04-.18.04-.18.03-.19.04-.18.05-.19.04-.18.04-.18.04-.19.05-.18.05-.21.05-.2.05-.21.05-.21.06-.2.05-.21.06-.21.05-.2.06-.21.06-.2.06-.2.06-.21.07-.2.06-.2.07-.21.06-.2.07-.2.07-.2.07-.2.07-.2.07-.2.08-.2.07-.2.08-.2.07-.2.08-.2.08-.2.08-.19.08-.2.09-.2.08-.19.09-.2.08-.19.09-.2.09-.19.09-.19.09-.19.09-.2.1-.19.09-.19.09-.18.09-.18.09-.17.09-.18.09-.18.1-.17.1-.18.09-.17.1-.17.1-.17.11-.17.1-.17.11-.17.1-.17.11-.16.11-.17.11-.16.12-.17.11-.16.12-.16.11-.16.12-.16.12-.16.12-.16.12-.15.13-.16.12-.15.13-.16.13-.15.13-.15.13-.15.13-.15.13-.15.14-.14.13-.15.14-.14.14-.15.14-.14.14-.14.14-.14.13-.13.14-.13.14-.13.14-.12.14-.12.15-.11.14-.12.15-.11.15-.1.16-.11.15-.1.16-.1.16-.09.16-.09.16-.09.16-.09.17-.08.16-.08.17-.07.17-.08.17-.06.17-.07.18-.06.17-.06.18-.06.17-.05.18-.05.18-.04.18-.04.18-.04.18-.03.19-.03.18-.03.18-.03.19-.02.18-.01.19-.01.19-.01.18-.01H430.76l.22.01.23.02.23.02.23.03.23.04.23.04.23.06.23.06.22.08.23.08.22.09.22.11.22.11.22.13.21.13.2.15.21.17.19.17.2.19.18.21.18.21.18.23.17.25.16.26.15.28.14.3.14.31.13.33.12.34.11.37.1.38.09.4.07.42.07.44.06.46.04.48.03.5.02.52.01.54-.01.22v.22l-.01.22-.02.22-.01.22-.02.22-.01.22-.02.22-.03.22-.02.22-.03.22-.02.22-.03.21-.03.22-.04.22-.03.22-.04.21-.04.22-.04.21-.05.22-.04.22-.05.21-.05.21-.05.22-.05.21-.06.21-.05.22-.06.21-.06.21-.07.21-.06.21-.07.21-.07.21-.07.21-.07.21-.07.21-.08.2-.08.21-.08.2-.08.21-.09.23-.08.22-.09.23-.09.22-.09.23-.09.23-.1.22-.09.22-.09.23-.1.22-.09.22-.1.23-.1.22-.09.22-.1.22-.1.22-.1.22-.11.23-.1.22-.1.22-.1.21-.11.22-.11.22-.1.22-.11.22-.11.21-.11.22-.11.22-.11.21-.11.22-.11.21-.11.22-.12.21-.11.22-.12.21-.12.21-.11.22-.12.21-.12.21-.12.21-.12.21-.12.2-.12.21-.12.2-.12.21-.12.2-.11.2-.12.2-.12.2-.12.2-.12.2-.12.19-.12.2-.12.19-.12.2-.11.19-.12.19-.12.19-.12.19-.12.19-.12.19-.12.18-.11.19-.12.18-.12.18-.12.19-.11.18-.12.18-.12.17-.12.18-.11.18-.12.17-.12.18-.11.17-.12.17-.12.17-.11.17-.12.17-.11.16-.12.17-.09.13-.09.12-.09.13-.09.12-.08.12-.09.12-.09.12-.08.12-.08.11-.08.12-.09.11-.08.11-.08.11-.07.11-.08.1-.08.11-.07.1-.08.1-.07.1-.07.1-.07.09-.07.1-.07.09-.07.09-.07.09-.07.09-.06.08-.07.09-.06.08-.07.08-.06.08-.06.08-.06.08-.06.08-.06.07-.06.07-.05.08-.06.06-.06.07-.05.07.02.02.03.01.02.02.03.01.02.01.02.02.03.01.02.02.03.01.02.02.03.01.02.02.03.01.02.01.03.02.02.01.02.01.03.02.02.01.03.01.02.02.03.01.02.01.03.02.03.01.02.01.03.02.02.01.03.01.02.01.03.01.02.02.03.01.02.01.03.01.03.01.02.02.03.01.02.01.03.01.09.03.09.03.1.03.09.03.09.02.09.03.1.03.09.02.09.02.1.03.09.02.1.02.09.02.09.02.1.02.09.01.1.02.09.01.1.02.1.01.09.01.1.02.09.01.1.01.09.01h.1l.1.01.09.01h.1l.09.01H427.68l.1.01h.1l.09-.01h.2l.09-.01h.1l.19-.01.19-.01.19-.02.19-.02.19-.02.19-.02.19-.03.19-.03.18-.03.19-.03.19-.04.18-.04.19-.04.18-.05.19-.04.18-.05.18-.06.18-.05.18-.06.18-.06.18-.06.18-.07.18-.06.17-.07.18-.08.17-.07.18-.08.17-.08.17-.08.17-.09.17-.08.16-.09.17-.1.17-.09.16-.1.16-.1.16-.1.16-.1.16-.11.16-.11.18-.12.19-.13.18-.12.18-.13.18-.13.18-.13.18-.13.18-.13.18-.13.18-.13.17-.13.18-.14.17-.13.18-.14.17-.13.18-.14.17-.14.17-.14.17-.14.17-.14.17-.14.17-.14.17-.14.17-.15.17-.14.16-.15.17-.15.16-.14.17-.15.16-.15.16-.15.16-.15.16-.15.16-.16.16-.15.16-.15.16-.16.16-.16.15-.15.16-.16.15-.15.15-.16.15-.15.15-.16.15-.15.15-.16.15-.16.14-.15.15-.16.15-.16.14-.16.15-.16.14-.16.15-.16.14-.16.14-.16.14-.16.15-.16.14-.16.14-.17.14-.16.14-.16.14-.17.14-.16.13-.17.14-.16.14-.17.14-.17.13-.16.14-.17.13-.17.14-.17.13-.17.13-.16.14-.17.13-.17.13-.18.13-.17.13-.17.13-.17.12-.17.12-.16.12-.16.12-.16.11-.16.12-.16.11-.16.11-.15.11-.15.11-.15.11-.15.1-.14.11-.15.1-.14.1-.14.1-.14.1-.14.1-.13.09-.13.1-.13.09-.13.09-.13.09-.13.09-.12.09-.13.08-.12.09-.11.08-.12.08-.12.08-.11.08-.11.07-.11.08-.11.07-.11.07-.1.07-.11.07-.1.07-.1.07-.09.06-.1.01-.02.02-.01.01-.02.01-.02.02-.01.02-.02.01-.01.02-.02.02-.01.02-.01.02-.01.02-.02.02-.01.02-.01.03-.01.02-.01.02-.01.03-.01h.03l.02-.01.03-.01.03-.01h.03l.03-.01h.03l.03-.01h.03l.03-.01H452.35l.03-.01h.2l.04.01h.08l.03.01.03.02.03.02.03.01.03.02.02.02.03.02.02.02.03.02.02.03.02.02.02.03.02.02.02.03.02.02.02.03.02.03.01.03.01.02.02.03.01.03.01.03.01.03.01.03.01.04v.03l.01.03v.09l.01.04-.01.03v.07l-.01.03v.03l-.01.03-.01.04-.01.03-.01.03-.86 2.68v.01l-.01.02v.01l-.01.02v.02l-.01.01v.01l-.01.01v.01l-.01.01v.01l-.01.01v.01l-.01.01v.01l-.01.01-.01.01v.01l-.01.01-.01.01-.01.01v.01h-.01v.01l-.06.09-.07.08-.07.09-.07.1-.06.09-.08.1-.07.09-.07.1-.07.1-.08.11-.08.1-.08.11-.08.11-.08.11-.08.11-.08.11-.08.12-.09.12-.09.12-.08.12-.09.12-.09.13-.1.12-.09.13-.09.13-.1.13-.09.14-.1.13-.1.14-.1.14-.1.14-.1.14-.11.14-.1.15-.11.15-.1.15-.11.15-.11.15-.11.15-.11.16-.12.17-.13.17-.12.17-.13.17-.12.17-.13.17-.13.16-.12.17-.13.17-.13.16-.13.17-.13.16-.13.17-.13.16-.13.17-.14.16-.13.16-.13.17-.14.16-.13.16-.14.16-.13.16-.14.16-.14.16-.13.16-.14.16-.14.15-.14.16-.14.16-.14.16-.14.15-.14.16-.15.15-.14.16-.14.15-.15.15-.14.16-.15.15-.14.15-.15.15-.16.16-.15.16-.16.16-.16.15-.16.16-.16.16-.16.15-.16.15-.16.16-.17.15-.16.15-.16.15-.17.15-.17.15-.16.14-.17.15-.17.14-.17.15-.17.14-.17.14-.18.15-.17.14-.17.14-.18.13-.18.14-.17.14-.18.13-.18.14-.18.13-.17.13-.18.13-.19.13-.18.13-.18.13-.18.13-.19.13-.18.12-.19.12-.18.13-.19.12-.18.12-.18.11-.18.12-.18.11-.19.1-.18.11-.19.1-.19.1-.19.1-.19.09-.19.09-.19.09-.2.08-.19.08-.2.08-.2.08-.19.07-.2.07-.21.07-.2.07-.2.06-.2.06-.21.05-.2.06-.21.05-.21.04-.2.05-.21.04-.21.03-.21.04-.21.03-.21.03-.21.03-.21.02-.21.02-.22.01-.21.02-.21.01-.22.01h-.42l-.1-.01h-.11l-.1-.01h-.1l-.11-.01-.1-.01h-.1l-.11-.01-.1-.01-.1-.02-.11-.01-.1-.01-.1-.01-.1-.02-.11-.02-.1-.01-.1-.02-.1-.02-.1-.02-.11-.02-.1-.02-.1-.02-.1-.02-.1-.03-.1-.02-.1-.03-.1-.02-.1-.03-.1-.03-.1-.03-.1-.03-.1-.03-.1-.03-.1-.03-.1-.03-.09-.04-.1-.03-.1-.04-.07-.03-.07-.02-.08-.03-.07-.02-.07-.03-.07-.03-.07-.02-.07-.03-.08-.03-.07-.03-.07-.02-.07-.03-.07-.03-.07-.03-.07-.03-.07-.02-.07-.03-.08-.03-.07-.03-.07-.03-.07-.03-.07-.03-.07-.03-.07-.03-.07-.03-.07-.03-.07-.03-.07-.03-.07-.03-.07-.04-.07-.03-.07-.03-.07-.03-.07-.03-.06-.04-.07-.03-.07-.03-.07-.03-.07-.04-.07-.03-1.49 1.79-.08.09-.08.09-.08.09-.08.08-.08.09-.09.09-.08.09-.08.08-.08.09-.09.08-.08.09-.08.09-.09.08-.08.09-.09.08-.08.09-.09.08-.08.08-.09.09-.08.08-.09.08-.09.09-.08.08-.09.08-.09.08-.08.08-.09.08-.09.08-.09.08-.09.09-.09.07-.09.08-.09.08-.09.08-.09.08-.09.08-.09.08-.09.08-.09.07-.09.08-.11.09-.11.1-.1.09-.11.09-.11.1-.11.09-.11.09-.11.09-.12.09-.11.08-.11.09-.11.09-.12.09-.11.08-.12.09-.11.08-.12.08-.11.09-.12.08-.12.08-.12.08-.11.08-.12.08-.12.08-.12.08-.12.07-.12.08-.12.08-.12.07-.13.08-.12.07-.12.07-.12.07-.13.08-.12.07-.13.07-.12.07-.13.07-.12.06-.13.07-.13.07-.13.07-.13.06-.13.07-.13.06-.14.06-.13.06-.14.06-.13.06-.14.05-.13.05-.14.05-.14.05-.14.05-.13.05-.14.04-.14.04-.14.04-.14.04-.15.04-.14.03-.14.04-.14.03-.14.03-.15.03-.14.02-.14.03-.15.02-.14.02-.15.02-.14.02-.15.02-.14.01-.15.01-.15.01-.14.01-.15.01-.15.01H406.13l-.13.01-.13-.01h-.13l-.13-.01h-.13l-.13-.01-.13-.02-.13-.01-.13-.02-.12-.02-.13-.02-.13-.03-.12-.03-.13-.03-.12-.03-.13-.03-.12-.04-.12-.04-.12-.04-.12-.04-.13-.05-.11-.05-.12-.05-.12-.05-.12-.06-.11-.05-.12-.06-.11-.06-.11-.07-.11-.06-.11-.07-.11-.07-.11-.07-.11-.08-.1-.07-.11-.08-.1-.08-.1-.09-.1-.08-.09-.08-.09-.08-.08-.08-.09-.09-.08-.08-.08-.09-.09-.08-.08-.09-.08-.09-.08-.08-.08-.09-.07-.09-.08-.09-.08-.1-.07-.09-.07-.09-.08-.1-.07-.09-.07-.1-.07-.09-.07-.1-.06-.1-.07-.09-.07-.1-.06-.1-.06-.1-.06-.11-.07-.1-.06-.1-.05-.1-.06-.11-.06-.1-.05-.11-.06-.1-.05-.11-.05-.11-.05-.1-.05-.11-.05-.11-.05-.11-.05-.11-.05-.12-.04-.11-.05-.11-.04-.11-.05-.12-.04-.11-.04-.12-.04-.11-.05-.12-.04-.11-.03-.12-.04-.11-.04-.12-.04-.12-.03-.11-.04-.12-.03-.12-.04-.11-.03-.12-.03-.12-.03-.12-.04-.11-.02-.12-.03-.12-.03-.12-.03-.12-.03-.12-.02-.12-.03-.12-.02-.12-.02-.12-.03-.12-.02-.12-.02-.12-.02-.12-.02-.12-.02-.12-.01-.12-.02-.12-.01-.04v-.04l-.01-.05v-.04l-.01-.04v-.04l-.01-.04-.01-.04v-.04l-.01-.04v-.04l-.02-.12-.01-.04v-.04l-.01-.04-.01-.04v-.03l-.01-.04v-.04l-.01-.04v-.04l-.01-.04v-.03l-.01-.04v-.08l-.01-.04v-.03l-.01-.04v-.11l-.01-.04v-.19l-.87 1.42-.08.12-.08.13-.08.12-.08.12-.08.12-.08.12-.08.12-.08.12-.09.12-.08.12-.08.12-.09.12-.08.12-.09.12-.08.12-.09.11-.08.12-.09.12-.09.11-.09.12-.09.12-.08.11-.09.12-.09.11-.09.11-.1.12-.09.11-.09.11-.09.12-.09.11-.1.11-.09.11-.1.11-.09.11-.1.11-.09.11-.1.11-.1.11-.09.11-.1.11-.1.11-.11.12-.1.11-.1.11-.11.11-.11.12-.1.11-.11.1-.11.11-.11.11-.11.11-.11.11-.11.1-.11.11-.11.1-.12.1-.11.11-.11.1-.12.1-.11.1-.12.1-.12.1-.12.1-.11.1-.12.09-.12.1-.12.09-.12.1-.12.09-.13.09-.12.1-.12.09-.13.09-.12.09-.13.09-.12.09-.13.08-.12.09-.13.09-.13.08-.12.08-.13.08-.12.08-.13.08-.12.07-.13.08-.13.07-.13.07-.13.06-.13.07-.13.06-.14.06-.13.06-.14.06-.13.05-.14.06-.14.05-.13.05-.14.05-.14.04-.14.04-.14.04-.14.04-.14.04-.15.04-.14.03-.14.03-.15.03-.14.03-.14.02-.15.02-.15.02-.14.02-.15.02-.14.01-.15.01-.15.01-.14.01-.15.01h-.82l-.22-.02-.22-.02-.22-.02-.22-.03-.22-.04-.21-.04-.21-.05-.22-.05-.2-.06-.21-.07-.21-.07-.2-.07-.2-.08-.2-.09-.2-.09-.19-.1-.2-.1-.19-.1-.18-.11-.18-.12-.18-.12-.18-.13-.18-.13-.17-.13-.16-.14-.17-.15-.16-.15-.15-.15-.15-.16-.15-.16-.15-.17-.14-.17-.13-.17-.13-.18-.13-.18-.12-.19-.12-.19-.13-.22-.12-.21-.12-.22-.11-.22-.12-.22-.11-.23-.1-.22-.11-.23-.1-.22-.09-.23-.1-.23-.09-.23-.08-.24-.09-.23-.08-.23-.08-.24-.07-.24-.07-.23-.07-.24-.06-.24-.06-.24-.06-.24-.05-.24-.05-.25-.04-.24-.05-.24-.04-.25-.03-.24-.03-.25-.03-.24-.03-.25-.02-.25-.02-.25-.01-.24-.02-.25v-.25l-.01-.25v-.5l.01-.25v-.35l-.06.07-.07.07-.07.07-.06.07-.07.07-.07.07-.06.07-.07.07-.07.07-.07.07-.07.08-.07.07-.07.07-.07.07-.07.07-.07.07-.07.07-.07.07-.08.07-.07.07-.07.07-.07.07-.08.07-.07.07-.07.07-.08.07-.07.07-.07.07-.08.07-.07.07-.08.07-.07.07-.08.07-.07.07-.08.07-.07.07-.08.07-.07.07-.08.07-.07.07-.17.15-.16.16-.17.15-.17.15-.16.15-.17.15-.17.15-.17.15-.17.14-.17.15-.17.14-.18.15-.17.14-.17.15-.18.14-.17.14-.18.14-.18.14-.17.14-.18.14-.18.14-.18.13-.18.14-.18.14-.18.13-.18.13-.18.14-.18.13-.19.13-.18.13-.18.13-.19.13-.19.13-.18.12-.19.13-.19.13-.18.12-.19.12-.19.13-.19.12-.2.12-.19.13-.2.12-.19.12-.2.12-.2.11-.2.12-.2.12-.2.11-.2.11-.2.11-.21.11-.2.11-.2.11-.21.11-.2.1-.21.11-.2.1-.21.1-.21.11-.2.09-.21.1-.21.1-.21.1-.21.09-.21.09-.21.1-.22.09-.21.09-.21.09-.21.08-.22.09-.21.08-.22.09-.21.08-.22.08-.22.08-.21.08-.22.07-.22.08-.23.08-.22.07-.23.07-.23.08-.23.06-.23.07-.23.07-.23.06-.23.06-.23.06-.23.06-.23.05-.23.06-.24.05-.23.05-.23.04-.24.05-.23.04-.24.05-.23.04-.24.03-.23.04-.24.03-.23.04-.24.03-.24.02-.23.03-.24.02-.24.03-.24.02-.23.02-.24.01-.24.02-.24.01-.24.01-.23.01h-.24l-.24.01h-.81l-.32-.01-.32-.01-.31-.01-.31-.02-.31-.03-.3-.02-.3-.04-.3-.03-.29-.04-.29-.05-.28-.05-.28-.05-.28-.06-.27-.06-.27-.06-.27-.07-.26-.08-.26-.08-.25-.08-.25-.09-.25-.09-.24-.09-.24-.1-.23-.11-.23-.11-.23-.11-.22-.12-.22-.12-.22-.13-.21-.13-.21-.13-.2-.14-.2-.14-.19-.15-.19-.15-.19-.16-.19-.16-.17-.16-.18-.17-.17-.17-.17-.18-.16-.18-.16-.18-.15-.19-.15-.19-.15-.19-.14-.2-.14-.2-.13-.21-.13-.2-.12-.21-.12-.22-.12-.22-.11-.22-.1-.22-.11-.23-.09-.23-.1-.24-.09-.24-.08-.24-.08-.24-.08-.25-.07-.25-.07-.26-.06-.26-.06-.26-.05-.27-.06-.26-.04-.28-.04-.27-.04-.28-.03-.28-.03-.29-.03-.29-.01-.29-.02-.29-.01-.3-.01-.3v-.51l.01-.2.01-.2v-.2l.01-.2.02-.2.01-.2.01-.2.02-.2.02-.19.01-.2.03-.2.02-.2.02-.2.03-.2.02-.19.03-.2.03-.2.03-.19.03-.2.04-.2.03-.19.04-.2.04-.2.04-.19.04-.2.04-.19.05-.19.04-.2.05-.19.05-.2.05-.19.05-.19.06-.19.05-.2.06-.19.06-.19.06-.19.06-.19.06-.19.07-.21.07-.22.07-.21.08-.21.07-.21.07-.21.08-.21.08-.21.07-.21.08-.21.08-.21.08-.21.08-.21.09-.21.08-.21.09-.2.08-.21.09-.21.09-.2.08-.21.09-.2.09-.21.1-.2.09-.21.09-.2.1-.2.09-.21.1-.2.1-.2.09-.2.1-.2.1-.2.1-.2.11-.2.1-.2.1-.2.11-.2.11-.2.1-.19.11-.2.11-.21.12-.21.12-.2.11-.21.12-.21.12-.2.12-.21.12-.2.13-.2.12-.21.12-.2.13-.2.12-.2.13-.2.13-.2.13-.2.13-.2.13-.2.13-.2.13-.2.13-.19.14-.2.13-.19.14-.2.13-.19.14-.2.14-.19.14-.19.14-.19.14-.2.14-.19.15-.19.14-.18.14-.19.15-.19.15-.19.14-.18.15-.19.15-.19.15-.18.15-.18.15-.18.15-.18.15-.18.15-.18.15-.18.15-.18.16-.18.15-.17.16-.18.15-.17.16-.18.16-.17.16-.17.16-.18.16-.17.16-.17.16-.17.17-.16.16-.17.17-.17.16-.16.17-.17.17-.16.16-.17.17-.16.17-.16.17-.16.17-.16.18-.16.17-.16.17-.16.18-.16.17-.15.18-.16.18-.15.17-.15.18-.16.18-.15.18-.15.17-.14.16-.14.17-.13.17-.14.17-.13.17-.14.18-.13.17-.13.17-.13.18-.13.17-.13.18-.12.17-.13.18-.12.18-.13.18-.12.18-.12.18-.12.18-.12.18-.12.18-.11.18-.12.19-.11.18-.12.19-.11.18-.11.19-.11.19-.11.19-.11.19-.1.18-.11.2-.1.19-.1.19-.11.19-.1.19-.1.2-.09.19-.1.19-.1.2-.09.18-.09.18-.08.17-.08.18-.08.18-.08.19-.07.18-.08.18-.07.18-.07.19-.06.18-.07.19-.06.19-.06.18-.06.19-.06.19-.05.19-.06.18-.05.19-.05.19-.04.2-.05.19-.04.19-.04.19-.04.19-.03.2-.03.19-.04.19-.03.2-.02.19-.03.2-.02.19-.02.2-.02.19-.02.2-.01.19-.01.2-.01.2-.01.19-.01h.64zm63.39 4.5l-.19.03-.2.05-.2.08-.21.09-.2.12-.22.13-.21.16-.22.17-.22.2-.22.22-.23.23-.23.26-.29.35-.28.36-.27.37-.27.37-.26.37-.25.38-.24.39-.24.39-.22.39-.22.4-.21.41-.21.41-.19.41-.23.51-.23.51-.21.51-.21.52-.2.52-.2.52-.18.53-.18.53-.17.53-.16.53-.16.54-.14.54-.14.54-.14.54-.12.54-.12.55-.1.54-.1.55-.08.55-.07.55-.07.55-.05.56-.04.55-.03.56-.02.55-.01.56v.69l.01.34.02.34.02.34.03.35.03.34.04.34.05.34.05.34.05.34.06.33.07.34.06.24.06.24.06.24.07.24.07.24.07.24.08.24.08.23.08.24.09.23.09.23.09.23.1.23.07.16.07.17.07.16.08.15.08.16.08.16.09.15.09.15.09.16.1.14.1.15.1.15.1.14.52.64.21-.27.21-.27.2-.27.21-.28.2-.27.2-.28.19-.28.2-.28.19-.28.19-.29.18-.28.19-.29.18-.29.28-.45.28-.46.27-.46.27-.46.26-.47.26-.47.25-.47.25-.47.24-.48.24-.48.23-.48.23-.48.22-.49.24-.54.23-.55.22-.55.22-.55.21-.56.2-.56.19-.56.19-.56.18-.56.17-.57.16-.57.16-.58.15-.57.15-.59.13-.6.13-.6.11-.6.1-.6.09-.6.07-.61.07-.6.05-.61.04-.61.04-.61.01-.61.01-.61v-.34l-.01-.17-.01-.17-.01-.17-.01-.17-.01-.17-.01-.17-.02-.17-.02-.16-.02-.17-.02-.17-.02-.17-.02-.16-.03-.16-.02-.15-.03-.16-.04-.16-.04-.15-.04-.16-.04-.15-.05-.15-.05-.15-.05-.15-.06-.15-.06-.15-.05-.12-.06-.12-.06-.11-.07-.12-.07-.11-.07-.1-.08-.11-.08-.1-.08-.1-.09-.09-.09-.1-.1-.08-.1-.09-.1-.07-.1-.07-.11-.06-.11-.05-.11-.05-.11-.04-.12-.03-.12-.03-.11-.02-.12-.02h-.13l-.12-.01-.12.01-.19.01zm-68.31-.5l-.51.09-.51.12-.5.16-.48.18-.48.21-.46.24-.44.27-.43.3-.42.32-.39.35-.48.42-.47.44-.46.44-.45.45-.44.46-.43.47-.42.48-.42.48-.4.49-.4.51-.38.5-.38.52-.36.5-.36.51-.35.52-.34.52-.33.52-.33.53-.31.53-.31.54-.3.55-.3.54-.28.55-.28.56-.19.41-.19.39-.18.37-.17.36-.16.35-.15.32-.15.31-.14.3-.13.28-.12.26-.11.24-.1.23.05.03.05.03.05.03.05.03.05.03.06.03.06.03.05.03.06.03.06.04.07.03.06.03.15.08.15.09.16.08.17.08.17.08.17.09.18.08.18.08.18.09.19.08.19.09.19.08.21.09.22.08.21.09.21.08.22.07.22.08.22.07.21.07.22.06.23.06.22.06.22.06.24.06.24.05.24.04.24.04.24.04.24.03.25.03.24.02.25.02.24.01.24.01h.25l.39-.01.4-.03.38-.05.39-.08.38-.09.37-.11.37-.12.36-.15.36-.17.35-.18.33-.2.33-.22.36-.26.36-.26.35-.28.33-.29.33-.3.32-.31.31-.32.3-.33.29-.33.28-.35.26-.36.26-.36.27-.4.26-.41.24-.42.24-.42.23-.43.21-.43.21-.44.19-.44.19-.45.17-.45.16-.46.15-.46.14-.45.14-.45.12-.45.1-.46.1-.46.08-.46.07-.47.06-.46.05-.47.04-.47.02-.47.01-.47-.01-.31-.02-.3-.04-.31-.05-.3-.06-.29-.08-.3-.09-.29-.1-.29-.12-.28-.13-.27-.14-.28-.16-.26-.13-.21-.15-.2-.17-.18-.18-.17-.19-.14-.21-.13-.21-.11-.23-.09-.23-.07-.24-.04-.25-.03h-.25l-.53.03-.52.05z" id="g"/></defs><use xlink:href="#a"/><use xlink:href="#a" fill-opacity="0" stroke="#000" stroke-opacity="0"/><use xlink:href="#b"/><use xlink:href="#b" fill-opacity="0" stroke="#000" stroke-opacity="0"/><use xlink:href="#c"/><use xlink:href="#c" fill-opacity="0" stroke="#000" stroke-opacity="0"/><use xlink:href="#d"/><use xlink:href="#d" fill-opacity="0" stroke="#000" stroke-opacity="0"/><g><use xlink:href="#e"/><use xlink:href="#e" fill-opacity="0" stroke="#000" stroke-opacity="0"/></g><g><use xlink:href="#f"/><use xlink:href="#f" fill-opacity="0" stroke="#000" stroke-opacity="0"/></g><g><use xlink:href="#g"/><use xlink:href="#g" fill-opacity="0" stroke="#000" stroke-opacity="0"/></g></svg>